<?xml version="1.0" encoding="UTF-8"?>
<svg id="b" data-name="Layer 2" xmlns="http://www.w3.org/2000/svg" width="309.929" height="235.114" viewBox="0 0 309.929 235.114">
  <g id="c" data-name="Layer 1">
    <g>
      <path d="M190.192,192.505c4.216,4.15,3.632,9.488,12.039,8.322,5.143-.713,6.608-5.181,9.477-8.488,2.635-3.036,7.735-5.578,8.285-9.678.426-3.178-.401-5.909,1.158-9.162,1.236-2.58,9.843-9.15,4.69-12.287-3.299-2.008-5.087,1.342-7.456,2.801-4.341,2.674-9.625,1.744-11.417-3.269-.699-1.955-.665-4.054-1.301-5.877-.66-1.891-2.446-3.488-2.734-5.795-.747-5.964,3.245-14.472,10.139-13.705,2.596.289,3.87,2.86,6.152,3.295,1.583.302,3.351-.523,5.327.064,4.873,1.447,4.556,10.204,9.558,8.685,4.227-1.284-.234-9.512-.545-11.843-.68-5.101,1.07-8.904,6.83-7.708,7.685,1.597,5.567,15.513,2.947,20.674-1.82,3.585-7.547,8.359-8.273,11.484-1.146,4.935,1.16,10.62-.051,15.647-1.304,5.413-7.06,7.585-9.077,12.477-1.8,4.365-.97,9.672-3.733,13.769-3.47,5.145-9.95,4.121-15.218,5.454-4.936,1.249-7.305,4.252-13.156,3.259-3.442-.584-5.879-4.464-8.455-6.368-3.527-2.607-8.356-3.151-10.256-7.712-2.09-5.016-.109-10.641-1.008-16.039-.778-4.671-2.855-7.788-1.636-12.943s4.964-6.392,7.457-10.054c2.722-3.999,3.273-9.678,6.825-13.377,5.228-5.446,14.787-3.208,12.727,5.072-1.738,6.984-11.766,7.18-13.581,13.812-1.079,3.943.462,7.563-.089,11.572-.53,3.856-3.838,5.607-3.079,10.33s4.854,5.026,7.455,7.586ZM214.04,145.298c-1.91.599-1.771,8.508.605,9.593,2.09.954,3.508-1.064,5.263-1.468,1.436-.33,3.954.273,4.868-1.444,1.354-2.542-4.189-2.859-5.514-3.494-1.605-.769-3.09-3.857-5.222-3.188Z"/>
      <path d="M214.962,85.536c-2.209-2.201-1.79-5.25-2.617-7.93-.646-2.093-2.651-4.163-2.941-6.485-.74-5.919,3.229-14.586,10.148-13.714,2.294.289,4.257,3.04,6.042,3.41,1.419.295,3.368-.687,5.432-.047,4.29,1.331,4.653,10.178,9.553,8.689,4.342-1.318-.659-10.62-.825-13.355-.529-8.692,10.606-8.345,12.179-.04.995,5.252-.262,10.991-2.867,15.57-2.975,5.229-8.271,7.534-8.205,14.285.037,3.835,1.524,6.674.73,11.002-1.062,5.787-6.599,7.795-8.971,12.582-2.484,5.013-.718,11.822-5.443,16.1-3.96,3.585-9.468,2.508-14.172,3.806-4.83,1.333-7.505,4.605-13.4,3.065-2.988-.78-5.402-4.429-7.756-6.169-3.697-2.733-8.49-3.121-10.393-8.024-1.713-4.412-.308-7.197-.356-11.269-.098-8.33-5.942-13.961.247-22.184,1.602-2.128,3.783-3.448,5.32-5.907,2.89-4.623,4.008-12.71,9.709-14.986,7.057-2.817,12.057,2.871,8.557,9.431-2.281,4.274-9.053,5.457-11.635,9.477-2.932,4.565-.344,8.979-1.011,13.793-.529,3.815-3.605,4.944-3.109,9.908.5,5.001,5.226,5.734,8.104,8.96,3.719,4.168,3.688,8.207,11.011,7.41,5.548-.603,6.848-5.028,9.886-8.527,3.376-3.89,7.616-4.916,8.269-10.591.316-2.743-.291-4.877.867-7.657,1.146-2.748,10.521-10.197,4.701-13.036-4.098-1.999-6.45,3.739-10.261,4.347-2.275.363-5.137-.266-6.792-1.914ZM220.509,67.344c-2.254.704-1.703,8.48.143,9.6,1.958,1.188,4.07-1.092,5.727-1.473,1.444-.332,3.953.273,4.868-1.444,1.355-2.542-4.19-2.859-5.514-3.494-1.606-.769-3.088-3.856-5.223-3.189Z"/>
      <path d="M44.456,137.785c4.128,3.914,7.228,13.527,2.188,17.786-2.105,1.779-4.311,1.682-6.589.283-5.353-3.287-2.568-13.978-12.647-12.288-6.406,1.074-4.139,8.999-7.331,13.316-2.423,3.276-7.397,3.184-8.185,7.533-.796,4.394,2.921,6.817,3.452,10.699.397,2.901-2.136,11.181,1.712,11.767,4.477.682,6.292-7.893,9.149-9.984,3.728-2.73,8.068-.539,11.533-2.402,2.568-1.381,2.674-3.684,4.182-5.696,4.617-6.162,13.004-4.027,11.661,4.457-.61,3.858-5.657,5.082-6.515,7.853-.944,3.048.96,5.783-.426,8.995-.932,2.159-3.646,3.19-4.168,5.709-.869,4.194.938,10.131-1.334,15.014-1.89,4.062-9.517,12.251-11.811,15-2.173,2.605-2.523,8.528-6.538,9.175-4.903.791-8.499-2.73-12.632-4.843-2.375-1.214-5.526-1.611-7.537-3.696-4.431-4.594-3.477-15.797,4.693-13.647,5.433,1.43,4.337,15.811,13.795,10.196,4.534-2.692.164-14.028,10.387-24.69,2.297-2.395,8.548-7.658,4.363-11.367-5.233-4.638-11.97,7.306-16.108,9.522-5.337,2.859-13.317.803-14.219-5.739-.595-4.319,1.249-7.678-.758-11.802-2.708-5.562-6.273-7.489-4.101-14.943,1.517-5.204,7.43-6.108,7.967-10.892.294-2.62-.699-5.169.967-7.557,1.184-1.697,3.722-2.292,4.891-3.644,2.005-2.321,1.07-5.919,5.711-6.861,3.631-.737,5.586,1.526,8.55,2.034,6.303,1.081,9.874-4.809,15.699.715Z"/>
      <path d="M49.046,196.538c3.009-3.343,6.792.124,9.963-1.95,4.269-2.792,2.145-9.59,4.327-14.073,1.561-3.208,5.748-5.126,7.156-8.562,2.222-5.424-.339-12.769,4.472-17.518,1.707-1.685,7.798-4.765,8.372-6.475,1.469-4.376-5.529-3.774-7.784-4.859-3.924-1.888-5.509-8.648-.156-9.76,5.951-1.236,8.353,3.194,12.881,3.793,4.446.588,8.63-2.174,13.474-1.769,9.868.826,8.704,12.124-.723,10.134-1.316-.278-2.962-1.992-3.803-.241-1.046,2.178,3.934,6.451,4.184,9.29.123,1.393-.862,3.074-.836,4.828.028,1.895,1.083,3.845.915,5.778-.197,2.258-1.859,3.341-1.809,6.343.078,4.695,3.594,7.15,3.169,13.441-.161,2.39-2.881,10.5.328,11.383,1.698.467,6.958-3.001,8.472,1.83,2.351,7.505-7.72,6.277-11.85,7.515-2.633.79-5.495,3.176-8.067,3.616-4.489.768-8.768-.434-7.658-5.847,1.075-5.244,7.059-2.237,8.648-4.828,1.409-2.298.81-10.688-1.094-12.779-2.39-2.624-5.747.114-8.219-.288-2.697-.439-4.273-4.173-7.753-3.518-2.162.407-1.789,4.756-2.58,6.41-.935,1.955-6.547,4.297-4.44,6.869,1.968,2.402,6.976-2.817,10.62.624,1.738,1.641,1.705,5.909-.553,7.086-2.353,1.226-3.933-.373-6.091.204-1.221.326-3.181,2.411-4.653,2.989-4.898,1.921-6.052-1.571-9.432-1.718-1.613-.07-3.44,1.124-4.958,1.287-5.292.567-7.884-5.496-4.519-9.235ZM91.572,149.776c-.224-.194-1.484-.081-1.893.05-2.096.668-2.348,7.373-3.385,9.631-1.89,4.115-7.891,7.792-7.31,12.944.37,3.281,4.147,1.215,6.53,1.582,1.565.241,4.819,3.053,5.871.868,1.441-2.995-2.33-7.005-2.429-10.132-.087-2.771,4.119-13.639,2.616-14.943Z"/>
      <path d="M62.835,118.571c2.004,1.87,1.45,6.162-1.085,7.384-2.646,1.275-6.868.841-9.929,1.759-4.541,1.362-7.493,5.202-13.008,3.376-4.33-1.433-3.395-8.006,1.107-8.967,1.562-.333,3.876.244,5.023-1.27,1.875-2.476,1.034-12.821-2.177-13.886-2.702-.896-4.708.886-6.883.617-2.804-.347-6.935-6.542-9.287-2.337-.777,1.389-.47,3.409-1.221,5.061-1.107,2.433-5.271,3.474-4.687,6.543.523,2.745,5.959-.178,7.895-.137,3.93.083,6.061,5.874,2.445,8.2-2.425,1.559-3.733-.156-5.951.327-2.329.507-3.785,3.456-7.299,3.54-3.094.073-4.77-2.074-6.787-2.273-1.925-.19-4.257,1.54-6.647,1.32-5.592-.515-5.816-9.711-.486-10.719,3.062-.579,4.842,1.485,7.822-.724,3.9-2.892,1.878-9.217,3.676-13.378,1.631-3.773,5.92-5.075,7.365-8.802,1.727-4.457.628-10.512,2.596-14.904,1.825-4.074,9.506-7.099,10.137-9.182,1.408-4.645-5.009-3.801-7.426-4.968-4.433-2.138-5.744-9.187.589-9.928,5.342-.625,7.737,3.559,12.095,4.001,4.752.482,8.79-2.35,13.895-1.743,8.23.978,8.55,10.491.499,10.301-1.795-.042-5.998-2.779-6.059.176-.041,1.999,4.238,5.48,4.507,8.535.167,1.901-.779,3.319-.764,4.857.016,1.61,1.005,3.518.932,5.299-.112,2.724-2.117,4.235-2.031,6.892.081,2.509,2.25,5.393,2.953,7.856,1.366,4.787-.341,7.802-.653,12.328-.634,9.188,5.038,1.293,8.845,4.845ZM41.685,71.847c-1.441.47-2.041,7.301-2.917,9.209-1.631,3.553-8.844,9.609-7.637,13.726.828,2.824,4.632.908,6.856,1.25,2.026.311,6.987,4.482,5.998-1.488-.944-5.7-3.701-5.146-1.927-12.898.427-1.865,4.667-11.443-.373-9.799Z"/>
      <path d="M154.895,94.816c-1.816-1.816-5.05-1.566-6.231.869-1.644,3.391.131,7.498-.394,11.268-.305,2.189-4.991,9.877-1.446,10.936,2.898.866,5.785-2.093,8.476,1.417,1.678,2.189,1.271,4.7-.456,6.763-3.585,4.283-12.55,1.152-17.515,1.817-4.113.551-11.284,5.791-14.389.374-2.497-4.358,2.535-9.107,6.822-9.714,3.837-.544,8.258,1.538,7.713-4.321-.25-2.689-2.267-6.033-2.007-8.827.355-3.817,4.493-5.522,4.728-8.774.233-3.227-2.328-8.613-2.2-12.436.159-4.717,5.607-8.84,4.911-12.61-.537-2.911-5.507-2.216-7.667-2.683-7.627-1.65-5.091-13.242,4.628-10.891,2.356.57,4.637,2.54,7.196,2.449,4.013-.144,8.284-4.266,13.159-4.397,4.549-.122,9.077,2.912,13.116,3.002,4.275.095,10.898-7.075,15.424-2.727,4.174,4.01-2.404,9.637-3.026,12.64-.496,2.397.424,5.159-.519,7.556-1.339,3.403-6.67,4.116-8.784,1.069-2.628-3.788.926-6.752-1.149-9.622-2.812-3.891-7.996.832-11.982.951-2.976.088-8.606-3.149-10.707-.714-1.725,1.999.616,5.868.179,8.703-.412,2.679-5.156,6.383-2.251,9.032,1.718,1.566,5.597,1.757,7.677.864,3.23-1.388,7.495-10.874,11.703-5.392,4.028,5.249-2.961,10.669-3.859,15.01-.838,4.053,1.344,9.413-2.835,11.974-4.496,2.756-9.404-.228-9.039-5.393.188-2.651,3.633-5.281.723-8.191Z"/>
      <path d="M87.31,117.426c1.386,1.384,4.704-.07,6.368.114,3.719.411,4.932,4.991,2.968,7.84-3.566,5.174-12.414,1.894-17.715,2.516-2.69.315-5.024,1.836-7.447,2.437-10.534,2.612-9.851-10.343-.588-11.796,4.641-.728,8.514,1.851,7.71-5.22-.571-5.026-3.632-6.477-.052-11.811.616-.918,1.663-1.642,2.092-2.399,2.412-4.259-3.24-12.554-.269-19.106,1.141-2.516,5.69-6.581,3.426-9.542-1.125-1.471-5.314-1.136-7.064-1.473-7.799-1.504-5.283-13.452,4.638-10.901,2.08.535,4.759,2.501,6.902,2.451,3.915-.091,8.189-4.159,12.65-4.453,5.799-.382,11.375,4.325,16.715,2.325,3.616-1.354,6.957-5.078,11.551-2.716,6.168,3.172-1.665,10.544-2.314,13.724-.653,3.199,1.31,8.578-3.237,9.777-3.483.918-6.353-.253-6.768-4.037-.287-2.614,1.436-5.553-.43-7.646-2.707-3.036-8.506,1.416-11.921,1.492-3.342.074-6.698-2.806-9.842-1.197-3.332,1.706-.342,5.405-.443,8.17-.119,3.235-5.398,7.237-2.513,9.911,1.816,1.683,5.402,1.776,7.614.914,3.505-1.365,8.061-11.043,12.078-5.307,3.983,5.686-3.873,11.078-4.423,16.531-.203,2.016.222,4.285-.006,6.274-.848,7.397-12.711,7.127-11.213-2.216.252-1.573,1.79-2.917,1.795-4.511.011-3.737-6.184-5.948-7.888-1.119-1.195,3.387.509,6.48.192,9.591-.274,2.687-4.764,9.184-2.565,11.38Z"/>
      <path d="M117.819,197.431c4.389-4.377,13.633,2.58,15.352-1.508,1.134-2.696-1.083-7.065-.553-10.424.598-3.786,5.004-7.959,5.307-11.319.271-3.009-2.005-6.274-1.79-9.354.338-4.831,5.829-7.725,4.808-13.418-.625-3.482-5.248-3.7-7.986-2.792-6.219,2.063-6.743,12.003-12.921,13.123-5.928,1.074-7-3.728-4.701-8.275,1.062-2.101,3.432-3.665,4.152-5.727.911-2.61-.298-7.82,3.446-8.67,4.065-.923,5.133,2.335,8.461,2.19,2.599-.113,3.283-2.36,5.409-2.709,3.092-.508,5.342,1.274,8.045.849,2.228-.35,3.55-2.649,5.328-3.662,5.511-3.139,8.357,1.985,12.983,1.637,4.267-.321,8.761-8.181,13.206-4.244,3.73,3.304-1.719,9.567-1.924,12.905-.122,1.993.922,4.353.753,6.555-.623,8.112-10.971,8.741-11.661.954-.3-3.383,2.772-7.166-1.344-8.963-2.566-1.12-5.648-.386-7.956,1.033-7.544,4.638-2.063,18.748-5.136,25.826-1.076,2.478-3.656,4.609-4.246,7.424-.647,3.084.726,6.065.222,9.195-.247,1.533-1.805,3.488-2.114,5.064-1.372,6.997,5.207,2.97,9.128,3.232,6.206.416,6.372,7.673,1.345,10.355-4.058,2.164-6.731-1.142-10.304-.89-2.646.187-4.833,2.979-7.254,3.149-3.33.234-4.619-2.453-7.245-2.7-3.65-.343-6.337,2.578-10.286-.47-2.643-2.04-2.859-6.039-.524-8.368Z"/>
      <g>
        <circle cx="237.699" cy="72.267" r="40.128" fill="none"/>
        <path d="M204.96,47.623c-1.142.383-2.296.433-3.463.15-1.166-.283-2.264-.882-3.292-1.799-1.018-.908-1.734-1.925-2.149-3.052-.414-1.126-.494-2.276-.239-3.45s.84-2.275,1.757-3.303c.778-.873,1.636-1.513,2.574-1.921.938-.408,1.899-.578,2.883-.51.984.067,1.947.365,2.888.89l-1.103,1.237c-1.1-.563-2.198-.737-3.295-.522-1.097.215-2.068.797-2.916,1.748-.701.786-1.145,1.63-1.332,2.533-.188.904-.111,1.803.23,2.699s.939,1.725,1.792,2.485c.863.77,1.757,1.271,2.681,1.503.924.233,1.822.197,2.693-.105.87-.303,1.651-.842,2.344-1.618.847-.951,1.319-1.982,1.417-3.097.097-1.114-.192-2.182-.867-3.202l1.09-1.222c.62.866,1.02,1.785,1.2,2.754s.118,1.942-.185,2.916c-.303.975-.844,1.898-1.622,2.771-.917,1.029-1.946,1.733-3.088,2.117Z"/>
        <path d="M217.769,36.441c-1.198-.122-2.271-.552-3.217-1.29-.946-.738-1.699-1.737-2.258-2.996-.554-1.247-.787-2.468-.7-3.666.086-1.197.487-2.278,1.203-3.243.716-.965,1.703-1.727,2.962-2.286s2.482-.779,3.673-.662c1.189.119,2.258.547,3.204,1.285.946.739,1.696,1.731,2.25,2.978.559,1.258.795,2.486.708,3.684-.086,1.197-.483,2.28-1.19,3.248-.708.968-1.69,1.731-2.949,2.291s-2.487.778-3.686.656ZM223.167,32.774c.542-.731.84-1.571.896-2.52.055-.949-.152-1.951-.622-3.008-.464-1.044-1.069-1.871-1.815-2.478-.746-.606-1.573-.957-2.481-1.051-.909-.094-1.851.075-2.824.508-.974.432-1.733,1.018-2.279,1.758-.545.74-.843,1.59-.893,2.551-.05.96.158,1.963.622,3.008.47,1.057,1.074,1.882,1.815,2.478.741.595,1.567.935,2.479,1.02s1.855-.088,2.829-.521,1.731-1.015,2.274-1.746Z"/>
        <path d="M231.815,18.656l9.077-.311.048,1.402-8.103.278.572-.37.432,12.582-1.558.053-.468-13.634ZM233.447,25.309l7.148-.246.048,1.402-7.148.245-.048-1.402Z"/>
        <path d="M250.211,19.812l8.648,2.77-.428,1.336-7.721-2.472.664-.156-3.84,11.99-1.484-.476,4.161-12.992ZM249.502,26.625l6.812,2.181-.428,1.336-6.812-2.182.428-1.336Z"/>
        <path d="M259.207,37.846c-.034-.255.036-.496.21-.723l7.702-10.058,7.381,5.651-.854,1.114-6.607-5.059.678.077-7.014,9.16-.251-.634,6.607,5.06-.853,1.113-6.607-5.059c-.227-.174-.357-.388-.391-.643ZM264.606,32.653l5.617,4.301-.854,1.114-5.617-4.301.853-1.114Z"/>
        <path d="M269.669,47.241c.055-.251.204-.453.445-.607l10.683-6.808,4.996,7.84-1.183.754-4.472-7.018.61.304-9.73,6.201-.018-.682,4.472,7.018-1.184.754-4.472-7.019c-.153-.241-.203-.487-.147-.738ZM276.522,44.214l3.802,5.966-1.184.754-3.802-5.966,1.184-.754Z"/>
        <path d="M278.527,68.701c.594-1.048,1.419-1.856,2.477-2.425,1.057-.568,2.274-.855,3.651-.86,1.364-.005,2.576.273,3.637.835,1.061.561,1.888,1.364,2.483,2.408.594,1.043.894,2.254.899,3.631.004,1.169-.207,2.219-.632,3.15-.426.93-1.027,1.699-1.805,2.306-.778.607-1.692,1.029-2.744,1.266l-.006-1.657c1.194-.315,2.128-.92,2.8-1.812s1.007-1.976,1.002-3.248c-.003-1.053-.237-1.978-.701-2.775-.464-.797-1.122-1.415-1.975-1.854s-1.851-.657-2.994-.652c-1.157.004-2.156.228-3,.673-.843.444-1.487,1.07-1.933,1.877-.445.807-.666,1.73-.663,2.77.005,1.273.343,2.357,1.015,3.251.672.895,1.6,1.495,2.783,1.803l.006,1.637c-1.04-.23-1.951-.647-2.732-1.248-.782-.602-1.385-1.366-1.811-2.293-.426-.927-.64-1.976-.645-3.145-.004-1.377.291-2.59.885-3.638Z"/>
        <path d="M276.576,83.626c.209-.094.466-.083.77.033l11.835,4.515-.556,1.457-11.763-4.488.562-.433-2.619,6.864-1.329-.506,2.612-6.847c.116-.303.278-.501.488-.596Z"/>
        <path d="M270.612,96.436c.906-.266,1.798-.234,2.673.092.877.327,1.768.88,2.673,1.661l5.963,5.141-1.018,1.181-5.8-5.001c-.768-.662-1.491-1.136-2.171-1.421-.68-.287-1.352-.343-2.017-.169-.664.173-1.314.629-1.951,1.367s-.989,1.446-1.059,2.124c-.069.678.087,1.332.47,1.962s.958,1.276,1.725,1.938l5.801,5.001-1.019,1.181-5.963-5.141c-.905-.781-1.586-1.578-2.042-2.392-.456-.814-.62-1.688-.491-2.624.129-.936.639-1.919,1.529-2.953.891-1.033,1.79-1.682,2.696-1.947Z"/>
        <path d="M266.609,117.874l-5.149,2.642c-1.318.676-2.426.901-3.323.675-.896-.227-1.571-.778-2.021-1.657-.386-.752-.488-1.469-.306-2.154.182-.685.665-1.302,1.449-1.85l.22.216c-1.087.471-2.062.555-2.926.252-.863-.302-1.547-.944-2.051-1.927-.356-.694-.522-1.367-.5-2.021.022-.654.236-1.26.644-1.819.406-.56.997-1.038,1.771-1.435l5.965-3.06,6.228,12.137ZM253.782,111.422c-.243.621-.179,1.296.195,2.025.392.763.921,1.225,1.587,1.387.667.161,1.44.016,2.318-.434l4.11-2.108-2.367-4.613-4.231,2.171c-.832.427-1.37.951-1.613,1.572ZM257.312,116.872c-.229.549-.187,1.129.127,1.743.302.589.738.954,1.306,1.093.568.14,1.251.004,2.048-.404l3.797-1.948-1.975-3.85-3.693,1.895c-.844.433-1.38.923-1.61,1.472Z"/>
      </g>
    </g>
  </g>
</svg>