<?xml version="1.0" encoding="UTF-8"?>
<svg id="b" data-name="Layer 2" xmlns="http://www.w3.org/2000/svg" width="334.614" height="389.403" viewBox="0 0 334.614 389.403">
  <g id="c" data-name="Layer 1">
    <g>
      <path d="M250.807,266.739c5.56,5.473,4.789,12.512,15.876,10.975,6.782-.94,8.714-6.833,12.498-11.193,3.475-4.004,10.201-7.356,10.926-12.762.562-4.19-.528-7.792,1.527-12.081,1.63-3.402,12.98-12.067,6.185-16.202-4.351-2.648-6.709,1.769-9.832,3.693-5.725,3.526-12.692,2.3-15.055-4.311-.921-2.578-.877-5.347-1.716-7.75-.87-2.493-3.225-4.599-3.606-7.641-.985-7.865,4.279-19.084,13.37-18.073,3.424.381,5.103,3.771,8.112,4.345,2.088.398,4.419-.689,7.025.084,6.426,1.908,6.008,13.456,12.604,11.453,5.575-1.693-.309-12.544-.718-15.617-.896-6.727,1.41-11.742,9.007-10.164,10.134,2.105,7.341,20.457,3.886,27.263-2.4,4.728-9.952,11.023-10.909,15.145-1.511,6.508,1.53,14.005-.068,20.634-1.72,7.138-9.309,10.002-11.969,16.453-2.373,5.756-1.279,12.755-4.923,18.158-4.576,6.784-13.121,5.434-20.069,7.192-6.51,1.647-9.633,5.608-17.348,4.298-4.54-.77-7.753-5.887-11.15-8.398-4.651-3.438-11.019-4.156-13.525-10.17-2.756-6.615-.143-14.032-1.329-21.151-1.026-6.16-3.765-10.27-2.158-17.068s6.546-8.429,9.833-13.259c3.59-5.274,4.317-12.762,9-17.641,6.894-7.182,19.5-4.23,16.783,6.688-2.292,9.21-15.516,9.468-17.909,18.214-1.423,5.2.609,9.973-.118,15.26-.7,5.085-5.061,7.394-4.061,13.622,1.005,6.256,6.401,6.627,9.831,10.004ZM282.256,204.486c-2.519.79-2.335,11.22.798,12.651,2.757,1.258,4.625-1.403,6.94-1.936,1.894-.436,5.214.36,6.42-1.904,1.785-3.353-5.525-3.77-7.272-4.607-2.117-1.014-4.074-5.087-6.886-4.204Z"/>
      <path d="M283.471,125.678c-2.914-2.903-2.361-6.924-3.452-10.457-.852-2.76-3.496-5.49-3.879-8.552-.976-7.806,4.258-19.234,13.383-18.085,3.026.381,5.613,4.009,7.967,4.497,1.872.388,4.442-.906,7.163-.062,5.657,1.755,6.135,13.421,12.598,11.459,5.725-1.739-.869-14.004-1.088-17.611-.697-11.463,13.986-11.005,16.061-.053,1.312,6.926-.346,14.494-3.781,20.532-3.924,6.896-10.906,9.935-10.82,18.838.049,5.057,2.01,8.801.963,14.508-1.4,7.631-8.702,10.28-11.83,16.592-3.276,6.611-.947,15.59-7.178,21.232-5.222,4.728-12.485,3.307-18.689,5.019-6.369,1.758-9.897,6.073-17.671,4.042-3.94-1.029-7.124-5.841-10.228-8.136-4.876-3.604-11.196-4.116-13.706-10.581-2.259-5.818-.406-9.491-.469-14.861-.129-10.985-7.836-18.41.326-29.255,2.112-2.806,4.989-4.546,7.016-7.789,3.811-6.096,5.285-16.761,12.803-19.762,9.306-3.715,15.9,3.786,11.284,12.437-3.007,5.636-11.938,7.197-15.343,12.497-3.867,6.019-.453,11.841-1.333,18.188-.697,5.03-4.754,6.519-4.1,13.065.659,6.595,6.891,7.561,10.687,11.816,4.904,5.497,4.863,10.822,14.521,9.772,7.316-.796,9.031-6.63,13.036-11.245,4.452-5.13,10.043-6.482,10.904-13.967.416-3.617-.384-6.432,1.144-10.097,1.511-3.624,13.875-13.446,6.199-17.191-5.404-2.636-8.506,4.931-13.531,5.733-3.001.479-6.774-.35-8.957-2.524ZM290.786,101.688c-2.972.929-2.246,11.182.188,12.659,2.582,1.567,5.367-1.44,7.552-1.943,1.904-.438,5.213.36,6.42-1.904,1.787-3.352-5.526-3.771-7.272-4.607-2.118-1.015-4.072-5.085-6.888-4.205Z"/>
      <path d="M58.625,194.579c5.444,5.161,9.532,17.839,2.886,23.455-2.776,2.346-5.685,2.218-8.689.373-7.059-4.335-3.386-18.433-16.678-16.204-8.448,1.416-5.458,11.868-9.668,17.56-3.196,4.321-9.754,4.198-10.794,9.934-1.05,5.795,3.851,8.989,4.552,14.109.523,3.825-2.817,14.744,2.257,15.517,5.903.899,8.297-10.408,12.064-13.166,4.917-3.599,10.639-.711,15.208-3.168,3.387-1.821,3.527-4.858,5.515-7.512,6.089-8.126,17.148-5.311,15.378,5.877-.805,5.088-7.46,6.702-8.591,10.355-1.245,4.02,1.266,7.626-.562,11.861-1.229,2.848-4.807,4.206-5.496,7.528-1.146,5.531,1.237,13.36-1.759,19.798-2.492,5.356-12.55,16.156-15.575,19.781-2.866,3.435-3.328,11.245-8.622,12.099-6.466,1.043-11.208-3.601-16.658-6.386-3.132-1.6-7.287-2.124-9.939-4.874-5.844-6.059-4.585-20.832,6.188-17.997,7.165,1.885,5.719,20.85,18.192,13.445,5.979-3.549.217-18.498,13.697-32.559,3.028-3.159,11.272-10.099,5.753-14.99-6.9-6.116-15.785,9.634-21.241,12.556-7.038,3.77-17.561,1.059-18.75-7.568-.785-5.695,1.648-10.125-1-15.564-3.571-7.335-8.272-9.876-5.408-19.705,2-6.863,9.797-8.054,10.506-14.364.388-3.455-.922-6.816,1.276-9.966,1.562-2.238,4.909-3.022,6.449-4.806,2.644-3.061,1.411-7.805,7.531-9.048,4.789-.972,7.366,2.012,11.275,2.682,8.312,1.425,13.021-6.341,20.703.942Z"/>
      <path d="M64.677,272.057c3.968-4.409,8.957.163,13.138-2.571,5.63-3.682,2.829-12.647,5.706-18.558,2.059-4.231,7.58-6.759,9.436-11.29,2.93-7.152-.447-16.839,5.897-23.101,2.252-2.223,10.283-6.283,11.041-8.539,1.938-5.77-7.292-4.977-10.265-6.407-5.175-2.49-7.265-11.405-.205-12.871,7.847-1.629,11.015,4.212,16.986,5.002,5.863.776,11.38-2.867,17.768-2.333,13.013,1.089,11.477,15.988-.953,13.363-1.735-.366-3.907-2.627-5.015-.318-1.38,2.873,5.188,8.507,5.518,12.25.162,1.837-1.137,4.053-1.103,6.367.037,2.499,1.428,5.071,1.206,7.619-.26,2.978-2.451,4.406-2.385,8.365.103,6.191,4.739,9.429,4.179,17.724-.213,3.152-3.799,13.846.432,15.011,2.239.616,9.176-3.957,11.171,2.413,3.1,9.897-10.18,8.277-15.626,9.91-3.472,1.041-7.246,4.189-10.638,4.769-5.919,1.012-11.562-.572-10.099-7.71,1.417-6.915,9.308-2.951,11.404-6.367,1.859-3.031,1.068-14.094-1.443-16.851-3.152-3.461-7.579.15-10.839-.38-3.557-.579-5.634-5.503-10.224-4.64-2.851.536-2.359,6.271-3.402,8.453-1.232,2.578-8.634,5.667-5.855,9.058,2.595,3.168,9.199-3.715,14.005.823,2.292,2.164,2.249,7.793-.729,9.344-3.103,1.616-5.187-.491-8.032.27-1.61.43-4.195,3.18-6.136,3.941-6.459,2.533-7.98-2.071-12.438-2.266-2.127-.093-4.536,1.482-6.538,1.697-6.978.748-10.397-7.247-5.959-12.178ZM120.757,210.392c-.295-.256-1.958-.106-2.497.066-2.763.881-3.096,9.722-4.464,12.701-2.493,5.426-10.406,10.275-9.64,17.07.488,4.327,5.469,1.602,8.611,2.086,2.063.318,6.355,4.026,7.742,1.144,1.901-3.95-3.073-9.237-3.203-13.361-.115-3.654,5.431-17.985,3.45-19.706Z"/>
      <path d="M82.861,169.241c2.643,2.466,1.912,8.126-1.43,9.737-3.489,1.682-9.057,1.109-13.093,2.32-5.989,1.797-9.88,6.86-17.154,4.453-5.71-1.89-4.477-10.558,1.46-11.825,2.06-.44,5.111.322,6.623-1.675,2.472-3.265,1.364-16.907-2.87-18.312-3.563-1.182-6.209,1.168-9.077.814-3.698-.457-9.145-8.627-12.247-3.082-1.025,1.832-.62,4.495-1.611,6.674-1.459,3.209-6.951,4.582-6.181,8.629.689,3.62,7.859-.234,10.411-.18,5.182.11,7.993,7.746,3.224,10.814-3.198,2.057-4.923-.205-7.847.431-3.071.668-4.992,4.558-9.626,4.668-4.08.097-6.29-2.734-8.95-2.998-2.538-.251-5.614,2.03-8.766,1.74-7.374-.679-7.669-12.806-.641-14.136,4.038-.764,6.386,1.959,10.315-.955,5.143-3.813,2.476-12.155,4.848-17.641,2.151-4.975,7.807-6.693,9.712-11.607,2.278-5.877.828-13.862,3.423-19.654,2.407-5.372,12.536-9.362,13.368-12.108,1.857-6.125-6.605-5.013-9.793-6.551-5.846-2.82-7.575-12.115.777-13.092,7.045-.824,10.203,4.694,15.95,5.276,6.266.635,11.592-3.099,18.323-2.298,10.853,1.29,11.275,13.834.659,13.584-2.367-.056-7.91-3.665-7.99.232-.054,2.636,5.589,7.227,5.943,11.255.221,2.506-1.027,4.377-1.007,6.405.02,2.123,1.325,4.639,1.228,6.988-.148,3.592-2.791,5.585-2.678,9.089.107,3.309,2.967,7.112,3.894,10.36,1.801,6.313-.449,10.288-.862,16.256-.837,12.116,6.644,1.705,11.664,6.39ZM54.971,107.626c-1.9.62-2.691,9.628-3.846,12.144-2.151,4.686-11.663,12.672-10.071,18.1,1.092,3.724,6.108,1.198,9.042,1.648,2.671.41,9.214,5.911,7.91-1.962-1.245-7.516-4.88-6.786-2.542-17.008.563-2.459,6.154-15.09-.492-12.922Z"/>
      <path d="M204.261,137.916c-2.395-2.395-6.66-2.065-8.217,1.146-2.168,4.471.173,9.888-.52,14.859-.402,2.886-6.581,13.024-1.907,14.422,3.821,1.142,7.629-2.76,11.178,1.868,2.213,2.886,1.676,6.197-.601,8.918-4.728,5.649-16.55,1.52-23.097,2.397-5.423.727-14.881,7.637-18.975.493-3.293-5.746,3.344-12.009,8.997-12.81,5.06-.717,10.89,2.028,10.171-5.698-.33-3.547-2.989-7.956-2.647-11.641.468-5.034,5.925-7.282,6.234-11.57.308-4.256-3.07-11.357-2.901-16.4.209-6.22,7.394-11.657,6.476-16.629-.709-3.839-7.263-2.922-10.111-3.538-10.057-2.176-6.714-17.462,6.103-14.362,3.107.751,6.114,3.35,9.49,3.229,5.292-.19,10.924-5.626,17.353-5.798,5.999-.161,11.969,3.84,17.296,3.958,5.637.125,14.371-9.33,20.34-3.596,5.505,5.288-3.171,12.709-3.99,16.668-.654,3.16.559,6.803-.684,9.964-1.765,4.488-8.796,5.427-11.583,1.41-3.466-4.996,1.221-8.903-1.515-12.689-3.708-5.132-10.545,1.098-15.8,1.254-3.925.117-11.349-4.152-14.12-.942-2.274,2.636.812,7.739.237,11.477-.544,3.532-6.799,8.418-2.969,11.91,2.265,2.065,7.381,2.317,10.124,1.139,4.26-1.83,9.884-14.34,15.433-7.11,5.312,6.922-3.904,14.07-5.089,19.794-1.106,5.344,1.773,12.412-3.738,15.79-5.929,3.634-12.402-.301-11.919-7.112.247-3.495,4.791-6.964.953-10.802Z"/>
      <path d="M115.137,167.732c1.828,1.826,6.203-.092,8.398.151,4.905.542,6.504,6.582,3.914,10.339-4.703,6.823-16.37,2.498-23.361,3.317-3.547.416-6.625,2.421-9.82,3.214-13.891,3.444-12.99-13.64-.776-15.555,6.12-.96,11.228,2.441,10.168-6.883-.753-6.628-4.789-8.541-.069-15.575.812-1.211,2.193-2.166,2.758-3.164,3.181-5.617-4.273-16.555-.354-25.195,1.505-3.318,7.503-8.679,4.518-12.583-1.483-1.94-7.008-1.498-9.316-1.943-10.284-1.984-6.967-17.739,6.116-14.375,2.743.705,6.275,3.297,9.101,3.232,5.162-.12,10.798-5.484,16.681-5.872,7.647-.504,15,5.703,22.042,3.066,4.768-1.785,9.174-6.697,15.232-3.581,8.134,4.183-2.195,13.904-3.052,18.098-.862,4.219,1.728,11.311-4.269,12.892-4.594,1.211-8.377-.334-8.925-5.323-.378-3.447,1.894-7.323-.566-10.082-3.569-4.003-11.217,1.868-15.72,1.967-4.406.097-8.833-3.701-12.979-1.578-4.394,2.249-.451,7.127-.585,10.774-.157,4.266-7.118,9.543-3.314,13.07,2.394,2.219,7.124,2.342,10.041,1.206,4.622-1.801,10.63-14.562,15.928-6.998,5.252,7.498-5.108,14.608-5.832,21.8-.268,2.659.293,5.651-.007,8.273-1.118,9.754-16.763,9.398-14.786-2.923.333-2.074,2.36-3.847,2.366-5.948.015-4.928-8.155-7.844-10.402-1.475-1.576,4.467.672,8.546.253,12.648-.362,3.544-6.282,12.111-3.383,15.007Z"/>
      <path d="M155.369,273.235c5.788-5.771,17.978,3.402,20.245-1.988,1.495-3.555-1.428-9.317-.729-13.746.788-4.993,6.599-10.495,6.998-14.927.358-3.969-2.644-8.274-2.36-12.336.445-6.371,7.687-10.187,6.341-17.694-.824-4.592-6.921-4.879-10.531-3.681-8.201,2.721-8.892,15.829-17.039,17.305-7.818,1.417-9.231-4.916-6.2-10.912,1.401-2.77,4.526-4.833,5.475-7.552,1.202-3.442-.393-10.312,4.545-11.433,5.361-1.218,6.768,3.079,11.157,2.888,3.427-.149,4.329-3.112,7.133-3.572,4.078-.67,7.044,1.68,10.609,1.12,2.939-.462,4.681-3.493,7.027-4.829,7.267-4.139,11.02,2.618,17.12,2.159,5.626-.423,11.553-10.788,17.415-5.596,4.919,4.356-2.267,12.616-2.537,17.018-.161,2.629,1.216,5.74.993,8.644-.822,10.697-14.467,11.526-15.377,1.258-.395-4.461,3.655-9.45-1.773-11.82-3.383-1.477-7.448-.509-10.491,1.362-9.948,6.116-2.72,24.724-6.773,34.056-1.419,3.267-4.821,6.077-5.599,9.79-.853,4.067.958,7.998.293,12.126-.325,2.022-2.38,4.599-2.787,6.678-1.809,9.226,6.866,3.916,12.037,4.262,8.183.548,8.403,10.119,1.774,13.655-5.351,2.854-8.876-1.507-13.588-1.174-3.489.247-6.373,3.928-9.566,4.153-4.392.309-6.091-3.235-9.553-3.56-4.814-.452-8.357,3.4-13.564-.619-3.485-2.691-3.771-7.964-.692-11.034Z"/>
      <g>
        <circle cx="167.617" cy="199.523" r="162.566" fill="none"/>
        <path d="M86.624,58.04c-.332-.101-.588-.322-.769-.663l-8.017-15.083,11.068-5.883.888,1.671-9.908,5.266.474-.788,7.302,13.736-.918-.047,9.908-5.267.888,1.67-9.908,5.267c-.34.181-.676.221-1.008.119ZM83.283,48.508l8.423-4.478.888,1.671-8.423,4.477-.888-1.67Z"/>
        <path d="M104.071,48.262c-1.565-.582-2.699-1.787-3.402-3.619l2.061-.792c.521,1.358,1.357,2.205,2.51,2.541,1.152.336,2.488.212,4.009-.372,1.341-.514,2.303-1.175,2.885-1.98.582-.805.669-1.739.26-2.802-.289-.752-.714-1.273-1.276-1.564-.562-.291-1.186-.436-1.87-.436-.685,0-1.632.064-2.84.19-.121.028-.309.053-.562.076-1.401.163-2.572.204-3.513.124-.941-.079-1.745-.329-2.413-.748-.667-.42-1.174-1.079-1.52-1.979-.546-1.423-.424-2.704.368-3.843.792-1.139,2.103-2.061,3.935-2.764,1.39-.533,2.625-.773,3.707-.719,1.081.054,1.977.357,2.686.911s1.244,1.296,1.602,2.228l-2.036.782c-.371-.964-1.036-1.563-1.998-1.794-.962-.231-2.129-.083-3.503.444-1.096.421-1.914.941-2.455,1.562-.541.621-.641,1.373-.302,2.256.245.638.621,1.08,1.129,1.326.507.247,1.078.365,1.713.356.634-.009,1.5-.074,2.599-.196l.024-.009c.104-.022.212-.035.323-.04,1.528-.173,2.77-.251,3.725-.234.954.019,1.823.253,2.606.703.782.45,1.385,1.223,1.805,2.318.597,1.554.515,3.016-.244,4.386-.759,1.371-2.21,2.468-4.353,3.291-2.208.848-4.094.981-5.659.399Z"/>
        <path d="M122.51,26.181l-5.551,1.413-.467-1.833,13.09-3.332.466,1.834-5.5,1.4,4.07,15.993-2.037.519-4.07-15.993Z"/>
        <path d="M138.58,20.713l5.531-.667c1.704-.206,3.369-.116,4.996.271,1.625.387,3.038,1.195,4.236,2.427,1.198,1.232,1.931,2.953,2.197,5.161.277,2.296-.02,4.189-.89,5.679-.87,1.491-2.047,2.598-3.53,3.324-1.483.727-3.085,1.193-4.807,1.4l-5.531.667-2.202-18.262ZM149.94,35.356c1.143-.543,2.064-1.396,2.762-2.556.698-1.16.935-2.671.71-4.533-.224-1.86-.819-3.285-1.786-4.271-.966-.986-2.07-1.621-3.313-1.904-1.243-.282-2.49-.348-3.743-.197l-3.678.444,1.749,14.505,3.679-.443c1.27-.153,2.476-.501,3.619-1.045Z"/>
        <path d="M173.413,36.732c-.165-.144-.237-.347-.218-.609.012-.157.053-.299.124-.425.071-.126.172-.246.304-.359l6.597-5.752c.225-.194.44-.38.647-.558.826-.711,1.491-1.316,1.994-1.814.502-.498.935-1.045,1.295-1.642.361-.596.565-1.218.614-1.864.05-.664-.071-1.222-.362-1.674-.292-.452-.726-.806-1.304-1.059-.578-.254-1.287-.413-2.125-.476-1.258-.094-2.321.143-3.189.71-.869.568-1.349,1.48-1.443,2.738l-2.07-.155c.127-1.694.772-2.99,1.938-3.887s2.831-1.264,4.998-1.102c1.362.102,2.484.37,3.365.805.881.435,1.515,1,1.902,1.697.387.697.547,1.49.481,2.381-.062.821-.299,1.59-.713,2.305-.414.716-.905,1.359-1.475,1.932-.57.572-1.325,1.263-2.263,2.071l-.451.387-6.035,5.293-1.071-.476,11.53.863-.137,1.834-12.211-.914c-.314-.023-.554-.107-.719-.251Z"/>
        <path d="M194.989,38.365c-.831-.918-1.332-2.108-1.504-3.569-.173-1.46-.066-3.188.32-5.184.585-3.027,1.546-5.228,2.882-6.602,1.336-1.375,3.166-1.837,5.487-1.388,1.565.303,2.759.908,3.583,1.817.823.909,1.318,2.084,1.486,3.526.167,1.442.057,3.169-.333,5.181-.589,3.044-1.543,5.26-2.864,6.646-1.321,1.387-3.142,1.855-5.464,1.406-1.565-.302-2.764-.913-3.594-1.833ZM201.723,38.008c.75-.417,1.36-1.133,1.833-2.148.473-1.015.874-2.374,1.203-4.076.329-1.704.464-3.118.406-4.245-.059-1.126-.358-2.027-.896-2.703-.539-.674-1.358-1.119-2.459-1.332-1.119-.216-2.053-.111-2.804.314-.751.426-1.369,1.15-1.852,2.172s-.889,2.384-1.218,4.087c-.329,1.703-.459,3.114-.39,4.233.068,1.121.374,2.013.914,2.68.541.667,1.369,1.107,2.488,1.324,1.1.213,2.026.111,2.776-.306Z"/>
        <path d="M211.319,42.595c-.127-.179-.151-.393-.071-.643.048-.15.121-.279.22-.386.098-.106.224-.199.378-.279l7.75-4.067c.264-.137.517-.267.759-.392.968-.5,1.755-.935,2.36-1.303.604-.368,1.151-.801,1.641-1.297s.832-1.054,1.029-1.672c.202-.634.214-1.205.036-1.712-.179-.508-.52-.952-1.023-1.333-.504-.382-1.156-.7-1.958-.955-1.202-.383-2.291-.399-3.267-.049-.977.352-1.656,1.127-2.039,2.33l-1.978-.63c.516-1.619,1.444-2.73,2.786-3.333,1.341-.602,3.046-.574,5.116.086,1.302.415,2.331.936,3.087,1.563.756.626,1.242,1.324,1.457,2.091.215.767.187,1.576-.084,2.428-.25.785-.66,1.477-1.228,2.077-.568.601-1.196,1.113-1.883,1.538s-1.581.921-2.681,1.49l-.528.273-7.097,3.751-.932-.711,11.016,3.511-.558,1.752-11.667-3.718c-.301-.096-.515-.233-.641-.411Z"/>
        <path d="M230.873,48.326c-.598-1.35-.544-2.799.16-4.345l1.889.86c-.523,1.148-.532,2.183-.028,3.105s1.369,1.663,2.597,2.223c1.211.552,2.352.658,3.421.317,1.069-.34,1.906-1.172,2.508-2.496.407-.893.567-1.72.48-2.481-.086-.761-.37-1.429-.849-2.003-.479-.575-1.118-1.043-1.915-1.406-1.052-.479-2.09-.779-3.114-.898-.062.01-.215.007-.458-.007-.434-.063-.769-.215-1.004-.458-.132-.175-.196-.363-.191-.563.004-.2.099-.46.283-.78.007-.015.014-.032.022-.048.007-.016.014-.031.021-.048l3.303-4.906c.045-.057.082-.116.111-.18.186-.281.353-.489.5-.625.148-.135.33-.206.545-.213.215-.007.491.064.826.217l7.557,3.442-.741,1.626-7.796-3.551.896-.256-3.501,5.277-.367-.398c.523-.051,1.111,0,1.764.153.652.153,1.361.404,2.126.752,1.259.574,2.232,1.291,2.918,2.152.686.861,1.069,1.815,1.151,2.863.081,1.047-.136,2.138-.652,3.269-.777,1.707-1.915,2.819-3.413,3.34-1.498.521-3.188.353-5.069-.504-2.057-.937-3.384-2.08-3.982-3.43Z"/>
      </g>
      <g>
        <circle cx="172.02" cy="175.838" r="162.566" fill="none"/>
        <path d="M60.926,322.577c-.675-1.477-.904-3.018-.689-4.623.215-1.604.865-3.159,1.949-4.667,1.074-1.493,2.337-2.597,3.79-3.312,1.453-.714,2.983-.982,4.594-.807,1.61.176,3.169.807,4.677,1.891,1.28.921,2.259,1.981,2.939,3.182.679,1.201,1.042,2.465,1.09,3.795.047,1.329-.215,2.662-.788,3.998l-1.813-1.305c.6-1.553.678-3.051.236-4.491-.442-1.44-1.36-2.662-2.754-3.664-1.152-.829-2.347-1.305-3.585-1.43-1.238-.124-2.434.106-3.587.69-1.154.584-2.181,1.501-3.081,2.753-.911,1.266-1.457,2.535-1.638,3.807-.182,1.272-.008,2.471.521,3.595.529,1.125,1.362,2.097,2.5,2.915,1.394,1.003,2.845,1.491,4.353,1.464,1.508-.027,2.898-.564,4.171-1.613l1.792,1.289c-1.075.954-2.249,1.62-3.524,1.998-1.275.378-2.587.432-3.937.163-1.35-.269-2.664-.864-3.944-1.785-1.508-1.084-2.599-2.365-3.273-3.843Z"/>
        <path d="M83.471,337.206c-.885-1.361-1.34-2.852-1.365-4.47-.024-1.619.388-3.253,1.237-4.904.841-1.636,1.927-2.915,3.258-3.835,1.331-.921,2.805-1.414,4.424-1.478,1.618-.064,3.253.329,4.905,1.178,1.651.849,2.917,1.949,3.8,3.299.881,1.35,1.335,2.834,1.36,4.452.024,1.619-.384,3.246-1.225,4.881-.85,1.651-1.939,2.938-3.27,3.858-1.331.922-2.804,1.42-4.418,1.495-1.615.076-3.249-.311-4.899-1.16-1.652-.849-2.92-1.955-3.806-3.316ZM91.886,339.775c1.226-.048,2.361-.445,3.404-1.189,1.042-.745,1.92-1.809,2.634-3.196.705-1.371,1.061-2.705,1.068-4.001s-.325-2.462-.994-3.496c-.67-1.034-1.644-1.88-2.921-2.537-1.278-.657-2.536-.959-3.774-.907-1.239.053-2.383.458-3.434,1.218-1.051.76-1.929,1.826-2.634,3.197-.713,1.386-1.069,2.72-1.068,4.001,0,1.281.342,2.437,1.024,3.467.682,1.031,1.661,1.875,2.939,2.531,1.277.658,2.529.961,3.756.913Z"/>
        <path d="M111.147,330.95l11.544,4.083-.631,1.785-10.306-3.646.901-.183-5.661,16.004-1.982-.701,6.135-17.342ZM109.916,340.103l9.092,3.216-.631,1.784-9.092-3.216.631-1.784Z"/>
        <path d="M130.084,337.079l11.948,2.683-.414,1.846-10.667-2.395.873-.289-3.719,16.563-2.051-.46,4.03-17.947ZM129.95,346.313l9.41,2.113-.415,1.846-9.41-2.113.415-1.846Z"/>
        <path d="M148.147,358.9c-.219-.269-.309-.595-.27-.979l1.743-16.992,12.469,1.279-.193,1.882-11.163-1.145.833-.39-1.587,15.475-.736-.55,11.163,1.145-.193,1.882-11.162-1.145c-.384-.04-.685-.193-.903-.462ZM150.682,349.122l9.489.973-.193,1.882-9.489-.973.193-1.882Z"/>
        <path d="M170.46,360.467c-.25-.24-.378-.553-.386-.938l-.324-17.078,12.532-.238.036,1.892-11.219.213.779-.488.295,15.554-.797-.458,11.219-.213.036,1.892-11.219.213c-.385.007-.703-.109-.953-.35ZM171.794,350.454l9.537-.181.036,1.891-9.538.181-.036-1.892Z"/>
        <path d="M207.133,356.517c-1.551-.482-2.853-1.338-3.905-2.568-1.052-1.229-1.778-2.751-2.179-4.565-.396-1.796-.377-3.473.059-5.032s1.257-2.879,2.462-3.962c1.205-1.082,2.714-1.824,4.527-2.225,1.54-.34,2.983-.363,4.332-.068,1.347.294,2.533.867,3.555,1.717,1.022.851,1.84,1.935,2.454,3.252l-2.181.482c-.758-1.483-1.822-2.539-3.19-3.17-1.369-.631-2.891-.762-4.567-.391-1.386.307-2.537.879-3.455,1.719-.918.84-1.544,1.884-1.878,3.133-.334,1.25-.335,2.627-.002,4.132.336,1.522.918,2.775,1.746,3.759.827.983,1.836,1.653,3.027,2.009,1.19.355,2.47.383,3.839.081,1.676-.371,3.008-1.126,3.993-2.269.986-1.142,1.512-2.536,1.579-4.184l2.155-.476c-.005,1.437-.292,2.756-.861,3.958s-1.403,2.216-2.503,3.042c-1.101.826-2.42,1.409-3.96,1.75-1.813.4-3.495.359-5.046-.124Z"/>
        <path d="M230.361,351.036c-.281-.132-.495-.403-.643-.816l-5.79-16.069,1.978-.712,5.754,15.97-.936-.194,9.32-3.358.65,1.805-9.296,3.349c-.412.149-.758.157-1.038.025Z"/>
        <path d="M250.963,342.254c-1.266-.136-2.361-.634-3.284-1.492-.924-.858-1.748-2.007-2.474-3.447l-4.782-9.478,1.877-.947,4.651,9.221c.616,1.22,1.273,2.183,1.973,2.89.699.707,1.508,1.123,2.425,1.249.917.126,1.962-.107,3.135-.699,1.173-.591,1.977-1.292,2.413-2.1.436-.809.578-1.704.426-2.688-.153-.982-.537-2.083-1.152-3.303l-4.651-9.221,1.877-.947,4.782,9.479c.726,1.439,1.164,2.783,1.313,4.032.149,1.249-.097,2.424-.739,3.522-.643,1.099-1.785,2.063-3.427,2.892s-3.096,1.175-4.362,1.038Z"/>
        <path d="M260.638,316.958l6.441-4.407c1.648-1.127,3.092-1.616,4.33-1.466,1.238.151,2.234.776,2.985,1.874.644.939.901,1.883.774,2.83-.127.946-.669,1.854-1.625,2.72l-.331-.251c1.375-.813,2.665-1.091,3.871-.833,1.206.257,2.229,1,3.07,2.229.594.868.931,1.742,1.012,2.62.081.879-.104,1.727-.553,2.543-.449.817-1.159,1.557-2.127,2.22l-7.46,5.104-10.387-15.181ZM273.245,316.722c.214-.772.059-1.542-.465-2.309-.504-.737-1.149-1.151-1.932-1.241-.783-.09-1.674.206-2.671.888l-4.75,3.25,3.294,4.814,4.62-3.161c1.055-.722,1.69-1.469,1.905-2.242ZM278.89,323.415c.22-.872.019-1.764-.604-2.675-.653-.955-1.439-1.483-2.359-1.586-.919-.103-1.929.222-3.028.974l-5.14,3.516,3.947,5.769,5.292-3.62c1.041-.712,1.671-1.505,1.892-2.377Z"/>
      </g>
    </g>
  </g>
</svg>