<?xml version="1.0" encoding="UTF-8"?>
<svg id="b" data-name="Layer 2" xmlns="http://www.w3.org/2000/svg" width="659.836" height="184.343" viewBox="0 0 659.836 184.343">
  <g id="c" data-name="Layer 1">
    <g>
      <g>
        <path d="M461.699,156.668h-7.499v8.397h7.671c1.612,0,2.834-.357,3.663-1.071.83-.714,1.244-1.739,1.244-3.076,0-1.382-.426-2.436-1.278-3.162-.853-.726-2.12-1.088-3.801-1.088Z"/>
        <path d="M226.887,147.77c-1.313-.749-2.857-1.123-4.631-1.123s-3.329.375-4.665,1.123c-1.336.749-2.362,1.832-3.076,3.249-.714,1.417-1.071,3.082-1.071,4.993,0,1.936.357,3.6,1.071,4.994.714,1.394,1.739,2.459,3.076,3.196,1.336.738,2.891,1.106,4.665,1.106s3.318-.368,4.631-1.106c1.313-.737,2.327-1.802,3.041-3.196.714-1.394,1.071-3.058,1.071-4.994,0-1.912-.357-3.577-1.071-4.993-.714-1.417-1.728-2.5-3.041-3.249Z"/>
        <path d="M464.463,152.936c.737-.622,1.106-1.498,1.106-2.626,0-1.06-.363-1.901-1.088-2.523-.726-.622-1.837-.933-3.335-.933h-6.946v7.015h6.773c1.59,0,2.753-.311,3.49-.933Z"/>
        <path d="M500.992,126.434h-118.633c-1.792,3.192-4.591,6.381-9.492,7.172-.984.159-1.983.239-2.97.239-5.976,0-10.664-2.897-14.431-5.225-1.248-.771-2.427-1.5-3.558-2.078-.07-.036-.156-.072-.233-.108h-198.227c-15.044,0-27.24,12.196-27.24,27.24v3.429c0,15.044,12.196,27.24,27.24,27.24h347.544c15.044,0,27.24-12.196,27.24-27.24v-3.429c0-15.044-12.196-27.24-27.24-27.24ZM182.188,161.005c.726,1.394,1.756,2.459,3.093,3.196,1.336.738,2.879,1.106,4.63,1.106,2.143,0,3.951-.553,5.426-1.659,1.474-1.106,2.476-2.638,3.006-4.596h3.594c-.392,1.866-1.129,3.508-2.212,4.924-1.083,1.417-2.459,2.512-4.129,3.283-1.671.772-3.565,1.158-5.685,1.158-2.465,0-4.636-.53-6.514-1.59-1.878-1.059-3.323-2.528-4.337-4.406-1.014-1.877-1.521-4.038-1.521-6.479,0-2.419.506-4.567,1.521-6.445,1.014-1.877,2.459-3.34,4.337-4.389,1.877-1.048,4.049-1.573,6.514-1.573,2.12,0,4.021.392,5.702,1.175s3.059,1.883,4.13,3.3c1.071,1.417,1.802,3.07,2.194,4.958h-3.629c-.507-1.981-1.498-3.53-2.972-4.648-1.475-1.117-3.283-1.676-5.426-1.676-1.774,0-3.323.38-4.647,1.14-1.325.76-2.35,1.844-3.076,3.249-.726,1.406-1.088,3.064-1.088,4.976,0,1.936.363,3.6,1.088,4.994ZM233.021,162.422c-1.002,1.878-2.431,3.347-4.285,4.406-1.854,1.06-4.014,1.59-6.479,1.59s-4.636-.53-6.514-1.59c-1.878-1.059-3.324-2.528-4.337-4.406-1.014-1.877-1.521-4.038-1.521-6.479,0-2.419.506-4.567,1.521-6.445,1.013-1.877,2.459-3.34,4.337-4.389,1.877-1.048,4.048-1.573,6.514-1.573s4.625.524,6.479,1.573c1.854,1.048,3.283,2.511,4.285,4.389,1.002,1.878,1.503,4.026,1.503,6.445,0,2.442-.501,4.602-1.503,6.479ZM260.752,146.992h-12.786v8.604h11.818v3.11h-11.818v9.365h-3.456v-24.19h16.242v3.11ZM286.981,146.992h-12.786v8.604h11.818v3.11h-11.818v9.365h-3.456v-24.19h16.242v3.11ZM313.658,146.992h-13.235v7.257h11.75v2.972h-11.75v7.741h13.235v3.11h-14.514c-.645,0-1.169-.201-1.572-.605-.403-.402-.604-.927-.604-1.572v-22.013h16.691v3.11ZM340.405,146.992h-13.235v7.257h11.75v2.972h-11.75v7.741h13.235v3.11h-14.514c-.646,0-1.169-.201-1.572-.605-.403-.402-.605-.927-.605-1.572v-22.013h16.691v3.11ZM367.445,161.005c.726,1.394,1.756,2.459,3.093,3.196,1.336.738,2.879,1.106,4.63,1.106,2.143,0,3.951-.553,5.426-1.659,1.474-1.106,2.476-2.638,3.006-4.596h3.594c-.392,1.866-1.129,3.508-2.211,4.924-1.083,1.417-2.459,2.512-4.13,3.283-1.67.772-3.565,1.158-5.685,1.158-2.465,0-4.636-.53-6.514-1.59-1.878-1.059-3.323-2.528-4.337-4.406-1.014-1.877-1.521-4.038-1.521-6.479,0-2.419.506-4.567,1.521-6.445,1.014-1.877,2.459-3.34,4.337-4.389,1.877-1.048,4.048-1.573,6.514-1.573,2.12,0,4.02.392,5.702,1.175,1.681.783,3.058,1.883,4.129,3.3,1.071,1.417,1.802,3.07,2.194,4.958h-3.628c-.507-1.981-1.498-3.53-2.972-4.648-1.475-1.117-3.283-1.676-5.426-1.676-1.774,0-3.323.38-4.647,1.14-1.325.76-2.35,1.844-3.076,3.249-.726,1.406-1.089,3.064-1.089,4.976,0,1.936.363,3.6,1.089,4.994ZM411.73,168.072h-12.752c-.737,0-1.284-.178-1.641-.536-.357-.357-.536-.904-.536-1.642v-22.013h3.456v21.045h11.473v3.145ZM439.79,157.912c0,2.097-.288,3.917-.864,5.46-.576,1.543-1.584,2.771-3.024,3.68-1.44.911-3.392,1.365-5.857,1.365s-4.417-.455-5.857-1.365c-1.44-.91-2.454-2.137-3.041-3.68s-.881-3.363-.881-5.46v-14.03h3.456v13.685c0,1.636.19,3.024.57,4.164.38,1.141,1.037,2.034,1.97,2.678.933.646,2.194.968,3.784.968s2.845-.322,3.767-.968c.921-.645,1.572-1.538,1.952-2.678.38-1.14.57-2.528.57-4.164v-13.685h3.456v14.03ZM469.457,164.823c-.587,1.037-1.44,1.837-2.557,2.402-1.118.565-2.471.847-4.061.847h-12.095v-24.19h10.505c2.672,0,4.648.542,5.926,1.625,1.279,1.083,1.918,2.511,1.918,4.285,0,1.475-.42,2.667-1.261,3.577-.593.642-1.418,1.105-2.451,1.409,1.368.316,2.467.89,3.281,1.736,1.117,1.164,1.676,2.725,1.676,4.682,0,1.382-.294,2.592-.881,3.628Z"/>
      </g>
      <g>
        <path d="M586.587,85.538c5.56,5.473,4.789,12.512,15.876,10.975,6.782-.94,8.714-6.833,12.498-11.193,3.475-4.004,10.201-7.356,10.926-12.762.562-4.19-.528-7.792,1.527-12.081,1.63-3.402,12.98-12.067,6.185-16.202-4.351-2.648-6.709,1.769-9.832,3.693-5.725,3.526-12.692,2.3-15.055-4.311-.921-2.578-.877-5.347-1.716-7.75-.87-2.493-3.225-4.599-3.606-7.641-.985-7.865,4.279-19.084,13.37-18.073,3.424.381,5.103,3.771,8.112,4.345,2.088.398,4.419-.689,7.025.084,6.426,1.908,6.008,13.456,12.604,11.453,5.575-1.693-.309-12.544-.718-15.617-.896-6.727,1.41-11.742,9.007-10.164,10.134,2.105,7.341,20.457,3.886,27.263-2.4,4.728-9.952,11.023-10.909,15.145-1.511,6.508,1.53,14.005-.068,20.634-1.72,7.138-9.309,10.002-11.969,16.453-2.373,5.756-1.279,12.755-4.923,18.158-4.576,6.784-13.121,5.434-20.069,7.192-6.51,1.647-9.633,5.608-17.348,4.298-4.54-.77-7.753-5.887-11.15-8.398-4.651-3.438-11.019-4.156-13.525-10.17-2.756-6.615-.143-14.032-1.329-21.151-1.026-6.16-3.765-10.27-2.158-17.068s6.546-8.429,9.833-13.259c3.59-5.274,4.317-12.762,9-17.641,6.894-7.182,19.5-4.23,16.783,6.688-2.292,9.21-15.516,9.468-17.909,18.214-1.423,5.2.609,9.973-.118,15.26-.7,5.085-5.061,7.394-4.061,13.622,1.005,6.256,6.401,6.627,9.831,10.004ZM618.037,23.286c-2.519.79-2.335,11.22.798,12.651,2.757,1.258,4.625-1.403,6.94-1.936,1.894-.436,5.214.36,6.42-1.904,1.785-3.353-5.525-3.77-7.272-4.607-2.117-1.014-4.074-5.087-6.886-4.204Z"/>
        <path d="M290.477,47.274c-2.914-2.903-2.361-6.924-3.452-10.457-.852-2.76-3.496-5.49-3.879-8.552-.976-7.806,4.258-19.234,13.383-18.085,3.026.381,5.613,4.009,7.967,4.497,1.872.388,4.442-.906,7.163-.062,5.657,1.755,6.135,13.421,12.598,11.459,5.725-1.739-.869-14.004-1.088-17.611-.697-11.463,13.986-11.005,16.061-.053,1.312,6.926-.346,14.494-3.781,20.532-3.924,6.896-10.906,9.935-10.82,18.838.049,5.057,2.01,8.801.963,14.508-1.4,7.631-8.702,10.28-11.83,16.592-3.276,6.611-.947,15.59-7.178,21.232-5.222,4.728-12.485,3.307-18.689,5.019-6.369,1.758-9.897,6.073-17.671,4.042-3.94-1.029-7.124-5.841-10.228-8.136-4.876-3.604-11.196-4.116-13.706-10.581-2.259-5.818-.406-9.491-.469-14.861-.129-10.985-7.836-18.41.326-29.255,2.112-2.806,4.989-4.546,7.016-7.789,3.811-6.096,5.285-16.761,12.803-19.762,9.306-3.715,15.9,3.786,11.284,12.437-3.007,5.636-11.938,7.197-15.343,12.497-3.867,6.019-.453,11.841-1.333,18.188-.697,5.03-4.754,6.519-4.1,13.065.659,6.595,6.891,7.561,10.687,11.816,4.904,5.497,4.863,10.822,14.521,9.772,7.316-.796,9.031-6.63,13.036-11.245,4.452-5.13,10.043-6.482,10.904-13.967.416-3.617-.384-6.432,1.144-10.097,1.511-3.624,13.875-13.446,6.199-17.191-5.404-2.636-8.506,4.931-13.531,5.733-3.001.479-6.774-.35-8.957-2.524ZM297.791,23.284c-2.972.929-2.246,11.182.188,12.659,2.582,1.567,5.367-1.44,7.552-1.943,1.904-.438,5.213.36,6.42-1.904,1.787-3.352-5.526-3.771-7.272-4.607-2.118-1.015-4.072-5.085-6.888-4.205Z"/>
        <path d="M394.405,13.378c5.444,5.161,9.532,17.839,2.886,23.455-2.776,2.346-5.685,2.218-8.689.373-7.059-4.335-3.386-18.433-16.678-16.204-8.448,1.416-5.458,11.868-9.668,17.56-3.196,4.321-9.754,4.198-10.794,9.934-1.05,5.795,3.851,8.989,4.552,14.109.523,3.825-2.817,14.744,2.257,15.517,5.903.899,8.297-10.408,12.064-13.166,4.917-3.599,10.639-.711,15.208-3.168,3.387-1.821,3.527-4.858,5.515-7.512,6.089-8.126,17.148-5.311,15.378,5.877-.805,5.088-7.46,6.702-8.591,10.355-1.245,4.02,1.266,7.626-.562,11.861-1.229,2.848-4.807,4.206-5.496,7.528-1.146,5.531,1.998,9.129-.998,15.567-2.492,5.356-7.391,5.505-10.416,9.13-2.866,3.435-3.328,11.245-8.622,12.099-6.466,1.043-11.208-3.601-16.658-6.386-3.132-1.6-7.287-2.124-9.939-4.874-5.844-6.059-4.585-20.832,6.188-17.997,7.165,1.885,5.719,20.85,18.192,13.445,5.979-3.549,5.016-12.076,7.777-17.677,1.935-3.925,11.272-10.099,5.753-14.99-6.9-6.116-15.785,9.634-21.241,12.556-7.038,3.77-17.561,1.059-18.75-7.568-.785-5.695,1.648-10.125-1-15.564-3.571-7.335-8.272-9.876-5.408-19.705,2-6.863,9.797-8.054,10.506-14.364.388-3.455-.922-6.816,1.276-9.966,1.562-2.238,4.909-3.022,6.449-4.806,2.644-3.061,1.411-7.805,7.531-9.048,4.789-.972,7.366,2.012,11.275,2.682,8.312,1.425,13.021-6.341,20.703.942Z"/>
        <path d="M400.458,90.856c3.968-4.409,8.957.163,13.138-2.571,5.63-3.682,2.829-12.647,5.706-18.558,2.059-4.231,7.58-6.759,9.436-11.29,2.93-7.152-.447-16.839,5.897-23.101,2.252-2.223,10.283-6.283,11.041-8.539,1.938-5.77-7.292-4.977-10.265-6.407-5.175-2.49-7.265-11.405-.205-12.871,7.847-1.629,11.015,4.212,16.986,5.002,5.863.776,11.38-2.867,17.768-2.333,13.013,1.089,11.477,15.988-.953,13.363-1.735-.366-3.907-2.627-5.015-.318-1.38,2.873,5.188,8.507,5.518,12.25.162,1.837-1.137,4.053-1.103,6.367.037,2.499,1.428,5.071,1.206,7.619-.26,2.978-2.451,4.406-2.385,8.365.103,6.191,4.739,9.429,4.179,17.724-.213,3.152-3.799,13.846.432,15.011,2.239.616,9.176-3.957,11.171,2.413,3.1,9.897-10.18,8.277-15.626,9.91-3.472,1.041-7.246,4.189-10.638,4.769-5.919,1.012-11.562-.572-10.099-7.71,1.417-6.915,9.308-2.951,11.404-6.367,1.859-3.031,1.068-14.094-1.443-16.851-3.152-3.461-7.579.15-10.839-.38-3.557-.579-5.634-5.503-10.224-4.64-2.851.536-2.359,6.271-3.402,8.453-1.232,2.578-8.634,5.667-5.855,9.058,2.595,3.168,9.199-3.715,14.005.823,2.292,2.164,2.249,7.793-.729,9.344-3.103,1.616-5.187-.491-8.032.27-1.61.43-4.195,3.18-6.136,3.941-6.459,2.533-7.98-2.071-12.438-2.266-2.127-.093-4.536,1.482-6.538,1.697-6.978.748-10.397-7.247-5.959-12.178ZM456.537,29.191c-.295-.256-1.958-.106-2.497.066-2.763.881-3.096,9.722-4.464,12.701-2.493,5.426-10.406,10.275-9.64,17.07.488,4.327,5.469,1.602,8.611,2.086,2.063.318,6.355,4.026,7.742,1.144,1.901-3.95-3.073-9.237-3.203-13.361-.115-3.654,5.431-17.985,3.45-19.706Z"/>
        <path d="M82.861,90.837c2.643,2.466,1.912,8.126-1.43,9.737-3.489,1.682-9.057,1.109-13.093,2.32-5.989,1.797-9.88,6.86-17.154,4.453-5.71-1.89-4.477-10.558,1.46-11.825,2.06-.44,5.111.322,6.623-1.675,2.472-3.265,1.364-16.907-2.87-18.312-3.563-1.182-6.209,1.168-9.077.814-3.698-.457-9.145-8.627-12.247-3.082-1.025,1.832-.62,4.495-1.611,6.674-1.459,3.209-6.951,4.582-6.181,8.629.689,3.62,7.859-.234,10.411-.18,5.182.11,7.993,7.746,3.224,10.814-3.198,2.057-4.923-.205-7.847.431-3.071.668-4.992,4.558-9.626,4.668-4.08.097-6.29-2.734-8.95-2.998-2.538-.251-5.614,2.03-8.766,1.74-7.374-.679-7.669-12.806-.641-14.136,4.038-.764,6.386,1.959,10.315-.955,5.143-3.813,2.476-12.155,4.848-17.641,2.151-4.975,7.807-6.693,9.712-11.607,2.278-5.877.828-13.862,3.423-19.654,2.407-5.372,12.536-9.362,13.368-12.108,1.857-6.125-6.605-5.013-9.793-6.551-5.846-2.82-7.575-12.115.777-13.092,7.045-.824,10.203,4.694,15.95,5.276,6.266.635,11.592-3.099,18.323-2.298,10.853,1.29,11.275,13.834.659,13.584-2.367-.056-7.91-3.665-7.99.232-.054,2.636,5.589,7.227,5.943,11.255.221,2.506-1.027,4.377-1.007,6.405.02,2.123,1.325,4.639,1.228,6.988-.148,3.592-2.791,5.585-2.678,9.089.107,3.309,2.967,7.112,3.894,10.36,1.801,6.313-.449,10.288-.862,16.256-.837,12.116,6.644,1.705,11.664,6.39ZM54.971,29.222c-1.9.62-2.691,9.628-3.846,12.144-2.151,4.686-11.663,12.672-10.071,18.1,1.092,3.724,6.108,1.198,9.042,1.648,2.671.41,9.214,5.911,7.91-1.962-1.245-7.516-4.88-6.786-2.542-17.008.563-2.459,6.154-15.09-.492-12.922Z"/>
        <path d="M207.264,59.512c-2.395-2.395-6.66-2.065-8.217,1.146-2.168,4.471.173,9.888-.52,14.859-.402,2.886-6.581,13.024-1.907,14.422,3.821,1.142,7.629-2.76,11.178,1.868,2.213,2.886,1.676,6.197-.601,8.918-4.728,5.649-16.55,1.52-23.097,2.397-5.423.727-14.881,7.637-18.975.493-3.293-5.746,3.344-12.009,8.997-12.81,5.06-.717,10.89,2.028,10.171-5.698-.33-3.547-2.989-7.956-2.647-11.641.468-5.034,5.925-7.282,6.234-11.57.308-4.256-3.07-11.357-2.901-16.4.209-6.22,7.394-11.657,6.476-16.629-.709-3.839-7.263-2.922-10.111-3.538-10.057-2.176-6.714-17.462,6.103-14.362,3.107.751,6.114,3.35,9.49,3.229,5.292-.19,10.924-5.626,17.353-5.798,5.999-.161,11.969,3.84,17.296,3.958,5.637.125,14.371-9.33,20.34-3.596,5.505,5.288-3.171,12.709-3.99,16.668-.654,3.16.559,6.803-.684,9.964-1.765,4.488-8.796,5.427-11.583,1.41-3.466-4.996,1.221-8.903-1.515-12.689-3.708-5.132-10.545,1.098-15.8,1.254-3.925.117-11.349-4.152-14.12-.942-2.274,2.636.812,7.739.237,11.477-.544,3.532-6.799,8.418-2.969,11.91,2.265,2.065,7.381,2.317,10.124,1.139,4.26-1.83,9.884-14.34,15.433-7.11,5.312,6.922-3.904,14.07-5.089,19.794-1.106,5.344,1.773,12.412-3.738,15.79-5.929,3.634-12.402-.301-11.919-7.112.247-3.495,4.791-6.964.953-10.802Z"/>
        <path d="M115.137,89.328c1.828,1.826,6.203-.092,8.398.151,4.905.542,6.504,6.582,3.914,10.339-4.703,6.823-16.37,2.498-23.361,3.317-3.547.416-6.625,2.421-9.82,3.214-13.891,3.444-12.99-13.64-.776-15.555,6.12-.96,11.228,2.441,10.168-6.883-.753-6.628-4.789-8.541-.069-15.575.812-1.211,2.193-2.166,2.758-3.164,3.181-5.617-4.273-16.555-.354-25.195,1.505-3.318,7.503-8.679,4.518-12.583-1.483-1.94-7.008-1.498-9.316-1.943-10.284-1.984-6.967-17.739,6.116-14.375,2.743.705,6.275,3.297,9.101,3.232,5.162-.12,10.798-5.484,16.681-5.872,7.647-.504,15,5.703,22.042,3.066,4.768-1.785,9.174-6.697,15.232-3.581,8.134,4.183-2.195,13.904-3.052,18.098-.862,4.219,1.728,11.311-4.269,12.892-4.594,1.211-8.377-.334-8.925-5.323-.378-3.447,1.894-7.323-.566-10.082-3.569-4.003-11.217,1.868-15.72,1.967-4.406.097-8.833-3.701-12.979-1.578-4.394,2.249-.451,7.127-.585,10.774-.157,4.266-7.118,9.543-3.314,13.07,2.394,2.219,7.124,2.342,10.041,1.206,4.622-1.801,10.63-14.562,15.928-6.998,5.252,7.498-5.108,14.608-5.832,21.8-.268,2.659.293,5.651-.007,8.273-1.118,9.754-16.763,9.398-14.786-2.923.333-2.074,2.36-3.847,2.366-5.948.015-4.928-8.155-7.844-10.402-1.475-1.576,4.467.672,8.546.253,12.648-.362,3.544-6.282,12.111-3.383,15.007Z"/>
        <path d="M491.149,92.034c5.788-5.771,17.978,3.402,20.245-1.988,1.495-3.555-1.428-9.317-.729-13.746.788-4.993,6.599-10.495,6.998-14.927.358-3.969-2.644-8.274-2.36-12.336.445-6.371,7.687-10.187,6.341-17.694-.824-4.592-6.921-4.879-10.531-3.681-8.201,2.721-8.892,15.829-17.039,17.305-7.818,1.417-9.231-4.916-6.2-10.912,1.401-2.77,4.526-4.833,5.475-7.552,1.202-3.442-.393-10.312,4.545-11.433,5.361-1.218,6.768,3.079,11.157,2.888,3.427-.149,4.329-3.112,7.133-3.572,4.078-.67,7.044,1.68,10.609,1.12,2.939-.462,4.681-3.493,7.027-4.829,7.267-4.139,11.02,2.618,17.12,2.159,5.626-.423,11.553-10.788,17.415-5.596,4.919,4.356-2.267,12.616-2.537,17.018-.161,2.629,1.216,5.74.993,8.644-.822,10.697-14.467,11.526-15.377,1.258-.395-4.461,3.655-9.45-1.773-11.82-3.383-1.477-7.448-.509-10.491,1.362-9.948,6.116-2.72,24.724-6.773,34.056-1.419,3.267-4.821,6.077-5.599,9.79-.853,4.067.958,7.998.293,12.126-.325,2.022-2.38,4.599-2.787,6.678-1.809,9.226,6.866,3.916,12.037,4.262,8.183.548,8.403,10.119,1.774,13.655-5.351,2.854-8.876-1.507-13.588-1.174-3.489.247-6.373,3.928-9.566,4.153-4.392.309-6.091-3.235-9.553-3.56-4.814-.452-8.357,3.4-13.564-.619-3.485-2.691-3.771-7.964-.692-11.034Z"/>
      </g>
    </g>
  </g>
</svg>