<svg width="333" height="257" viewBox="0 0 333 257" fill="none" xmlns="http://www.w3.org/2000/svg">
<g clip-path="url(#clip0_146_231)">
<path d="M75.3471 248.597C73.9371 247.791 72.8501 246.675 72.0881 245.246C71.3261 243.818 70.9451 242.176 70.9451 240.319C70.9451 238.48 71.3261 236.846 72.0881 235.418C72.8501 233.99 73.9371 232.878 75.3471 232.081C76.7571 231.284 78.3911 230.886 80.2481 230.886C81.8251 230.886 83.2391 231.175 84.4921 231.753C85.7451 232.331 86.7781 233.146 87.5931 234.197C88.4071 235.248 88.9721 236.483 89.2881 237.902H87.0551C86.6341 236.29 85.8241 235.029 84.6241 234.118C83.4241 233.207 81.9651 232.752 80.2491 232.752C78.8301 232.752 77.5821 233.063 76.5041 233.685C75.4271 234.307 74.5901 235.192 73.9941 236.339C73.3981 237.486 73.1001 238.831 73.1001 240.373C73.1001 241.932 73.3981 243.281 73.9941 244.42C74.5901 245.559 75.4311 246.43 76.5171 247.034C77.6031 247.638 78.8471 247.941 80.2481 247.941C81.9651 247.941 83.4281 247.49 84.6361 246.588C85.8451 245.686 86.6591 244.438 87.0801 242.843H89.2881C88.9731 244.244 88.4081 245.47 87.5931 246.522C86.7781 247.573 85.7441 248.384 84.4921 248.953C83.2401 249.522 81.8251 249.807 80.2481 249.807C78.3911 249.807 76.7571 249.404 75.3471 248.599V248.597Z" fill="#F5F3C3"/>
<path d="M99.9171 248.597C98.5071 247.791 97.4211 246.675 96.6591 245.246C95.8971 243.818 95.5161 242.176 95.5161 240.319C95.5161 238.48 95.8971 236.846 96.6591 235.418C97.4211 233.99 98.5071 232.878 99.9171 232.081C101.327 231.284 102.961 230.886 104.818 230.886C106.675 230.886 108.304 231.284 109.706 232.081C111.107 232.878 112.189 233.991 112.951 235.418C113.713 236.846 114.094 238.48 114.094 240.319C114.094 242.176 113.713 243.819 112.951 245.246C112.189 246.674 111.107 247.791 109.706 248.597C108.304 249.403 106.675 249.805 104.818 249.805C102.961 249.805 101.327 249.402 99.9171 248.597ZM108.575 247.033C109.643 246.429 110.471 245.557 111.058 244.419C111.644 243.28 111.938 241.931 111.938 240.372C111.938 238.83 111.644 237.481 111.058 236.325C110.471 235.169 109.643 234.284 108.575 233.671C107.506 233.058 106.254 232.752 104.817 232.752C103.38 232.752 102.124 233.059 101.046 233.671C99.9691 234.285 99.1371 235.169 98.5501 236.325C97.9631 237.481 97.6701 238.83 97.6701 240.372C97.6701 241.931 97.9631 243.28 98.5501 244.419C99.1371 245.558 99.9691 246.429 101.046 247.033C102.124 247.637 103.38 247.94 104.817 247.94C106.254 247.94 107.506 247.638 108.575 247.033Z" fill="#F5F3C3"/>
<path d="M121.951 231.148H134.196V233.04H123.264L124.053 232.567V249.543H121.951V231.148ZM123.842 240.188H133.487V242.08H123.842V240.188Z" fill="#F5F3C3"/>
<path d="M142.08 231.148H154.325V233.04H143.393L144.182 232.567V249.543H142.08V231.148ZM143.971 240.188H153.616V242.08H143.971V240.188Z" fill="#F5F3C3"/>
<path d="M162.576 249.175C162.33 248.93 162.208 248.614 162.208 248.229V231.148H174.742V233.04H163.521L164.31 232.567V248.124L163.521 247.651H174.742V249.543H163.521C163.136 249.543 162.82 249.42 162.575 249.175H162.576ZM164.1 239.189H173.639V241.081H164.1V239.189Z" fill="#F5F3C3"/>
<path d="M182.994 249.175C182.748 248.93 182.626 248.614 182.626 248.229V231.148H195.16V233.04H183.939L184.728 232.567V248.124L183.939 247.651H195.16V249.543H183.939C183.554 249.543 183.238 249.42 182.993 249.175H182.994ZM184.518 239.189H194.057V241.081H184.518V239.189Z" fill="#F5F3C3"/>
<path d="M216.775 248.597C215.364 247.791 214.278 246.675 213.517 245.246C212.755 243.818 212.373 242.176 212.373 240.319C212.373 238.48 212.754 236.846 213.517 235.418C214.279 233.99 215.365 232.878 216.775 232.081C218.185 231.284 219.818 230.886 221.676 230.886C223.253 230.886 224.667 231.175 225.92 231.753C227.173 232.331 228.207 233.146 229.021 234.197C229.835 235.248 230.4 236.483 230.716 237.902H228.482C228.062 236.29 227.252 235.029 226.051 234.118C224.851 233.207 223.393 232.752 221.676 232.752C220.257 232.752 219.009 233.063 217.931 233.685C216.853 234.307 216.017 235.192 215.421 236.339C214.825 237.486 214.528 238.831 214.528 240.373C214.528 241.932 214.825 243.281 215.421 244.42C216.017 245.559 216.858 246.43 217.944 247.034C219.03 247.638 220.274 247.941 221.675 247.941C223.392 247.941 224.855 247.49 226.063 246.588C227.272 245.686 228.086 244.438 228.507 242.843H230.715C230.4 244.244 229.835 245.47 229.02 246.522C228.205 247.574 227.171 248.384 225.919 248.953C224.667 249.522 223.252 249.807 221.675 249.807C219.818 249.807 218.184 249.404 216.774 248.599L216.775 248.597Z" fill="#F5F3C3"/>
<path d="M238.611 249.214C238.392 248.995 238.283 248.667 238.283 248.229V231.148H240.385V248.124L239.571 247.624H249.478V249.542H239.597C239.159 249.542 238.831 249.433 238.612 249.213L238.611 249.214Z" fill="#F5F3C3"/>
<path d="M259.069 248.767C258 248.075 257.247 247.138 256.809 245.955C256.371 244.772 256.152 243.375 256.152 241.764V231.148H258.254V241.475C258.254 242.842 258.407 243.998 258.714 244.944C259.02 245.89 259.555 246.626 260.317 247.152C261.079 247.677 262.117 247.94 263.431 247.94C264.745 247.94 265.778 247.677 266.532 247.152C267.285 246.626 267.815 245.89 268.122 244.944C268.428 243.998 268.581 242.842 268.581 241.475V231.148H270.683V241.764C270.683 243.376 270.469 244.773 270.039 245.955C269.609 247.138 268.861 248.075 267.792 248.767C266.723 249.459 265.269 249.805 263.43 249.805C261.591 249.805 260.136 249.459 259.068 248.767H259.069Z" fill="#F5F3C3"/>
<path d="M279.355 231.148H287.16C289.157 231.148 290.624 231.56 291.561 232.383C292.498 233.207 292.967 234.284 292.967 235.615C292.967 236.754 292.647 237.677 292.008 238.387C291.368 239.096 290.409 239.539 289.131 239.714L289 239.32C290.594 239.425 291.816 239.924 292.666 240.818C293.515 241.711 293.94 242.903 293.94 244.392C293.94 245.443 293.725 246.354 293.296 247.125C292.867 247.896 292.236 248.491 291.404 248.912C290.571 249.332 289.569 249.543 288.395 249.543H279.355V231.148ZM289.893 238.073C290.506 237.556 290.812 236.834 290.812 235.905C290.812 235.011 290.514 234.306 289.919 233.79C289.323 233.273 288.421 233.015 287.212 233.015H281.457V238.848H287.054C288.332 238.848 289.279 238.59 289.892 238.073H289.893ZM290.773 246.784C291.447 246.189 291.785 245.339 291.785 244.235C291.785 243.079 291.434 242.198 290.734 241.594C290.034 240.99 289.017 240.688 287.686 240.688H281.458V247.678H287.87C289.131 247.678 290.098 247.38 290.773 246.784Z" fill="#F5F3C3"/>
<path d="M250.807 188.305C256.367 193.778 255.596 200.817 266.683 199.28C273.465 198.34 275.397 192.447 279.181 188.087C282.656 184.083 289.382 180.731 290.107 175.325C290.669 171.135 289.579 167.533 291.634 163.244C293.264 159.842 304.614 151.177 297.819 147.042C293.468 144.394 291.11 148.811 287.987 150.735C282.262 154.261 275.295 153.035 272.932 146.424C272.011 143.846 272.055 141.077 271.216 138.674C270.346 136.181 267.991 134.075 267.61 131.033C266.625 123.168 271.889 111.949 280.98 112.96C284.404 113.341 286.083 116.731 289.092 117.305C291.18 117.703 293.511 116.616 296.117 117.389C302.543 119.297 302.125 130.845 308.721 128.842C314.296 127.149 308.412 116.298 308.003 113.225C307.107 106.498 309.413 101.483 317.01 103.061C327.144 105.166 324.351 123.518 320.896 130.324C318.496 135.052 310.944 141.347 309.987 145.469C308.476 151.977 311.517 159.474 309.919 166.103C308.199 173.241 300.61 176.105 297.95 182.556C295.577 188.312 296.671 195.311 293.027 200.714C288.451 207.498 279.906 206.148 272.958 207.906C266.448 209.553 263.325 213.514 255.61 212.204C251.07 211.434 247.857 206.317 244.46 203.806C239.809 200.368 233.441 199.65 230.935 193.636C228.179 187.021 230.792 179.604 229.606 172.485C228.58 166.325 225.841 162.215 227.448 155.417C229.055 148.619 233.994 146.988 237.281 142.158C240.871 136.884 241.598 129.396 246.281 124.517C253.175 117.335 265.781 120.287 263.064 131.205C260.772 140.415 247.548 140.673 245.155 149.419C243.732 154.619 245.764 159.392 245.037 164.679C244.337 169.764 239.976 172.073 240.976 178.301C241.981 184.557 247.377 184.928 250.807 188.305ZM282.256 126.052C279.737 126.842 279.921 137.272 283.054 138.703C285.811 139.961 287.679 137.3 289.994 136.767C291.888 136.331 295.208 137.127 296.414 134.863C298.199 131.51 290.889 131.093 289.142 130.256C287.025 129.242 285.068 125.169 282.256 126.052Z" fill="#F5F3C3"/>
<path d="M283.471 47.2441C280.557 44.3411 281.11 40.3201 280.019 36.7871C279.167 34.0271 276.523 31.2971 276.14 28.2351C275.164 20.4291 280.398 9.00105 289.523 10.1501C292.549 10.5311 295.136 14.1591 297.49 14.6471C299.362 15.0351 301.932 13.7411 304.653 14.5851C310.31 16.3401 310.788 28.0061 317.251 26.0441C322.976 24.3051 316.382 12.0401 316.163 8.43305C315.466 -3.02995 330.149 -2.57194 332.224 8.38006C333.536 15.3061 331.878 22.8741 328.443 28.9121C324.519 35.8081 317.537 38.8471 317.623 47.7501C317.672 52.8071 319.633 56.5511 318.586 62.2581C317.186 69.8891 309.884 72.5381 306.756 78.8501C303.48 85.4611 305.809 94.4401 299.578 100.082C294.356 104.81 287.093 103.389 280.889 105.101C274.52 106.859 270.992 111.174 263.218 109.143C259.278 108.114 256.094 103.302 252.99 101.007C248.114 97.4031 241.794 96.8911 239.284 90.4261C237.025 84.6081 238.878 80.9351 238.815 75.5651C238.686 64.5801 230.979 57.1551 239.141 46.3101C241.253 43.5041 244.13 41.7641 246.157 38.5211C249.968 32.4251 251.442 21.7601 258.96 18.7591C268.266 15.0441 274.86 22.5451 270.244 31.1961C267.237 36.8321 258.306 38.3931 254.901 43.6931C251.034 49.7121 254.448 55.5341 253.568 61.8811C252.871 66.9111 248.814 68.4001 249.468 74.9461C250.127 81.5411 256.359 82.5071 260.155 86.7621C265.059 92.2591 265.018 97.584 274.676 96.534C281.992 95.738 283.707 89.9041 287.712 85.2891C292.164 80.1591 297.755 78.8071 298.616 71.3221C299.032 67.7051 298.232 64.8901 299.76 61.2251C301.271 57.6011 313.635 47.7791 305.959 44.0341C300.555 41.3981 297.453 48.9651 292.428 49.7671C289.427 50.2461 285.654 49.4181 283.471 47.2441ZM290.786 23.2541C287.814 24.1831 288.54 34.4361 290.974 35.9131C293.556 37.4801 296.341 34.4731 298.526 33.9701C300.43 33.5321 303.739 34.3301 304.946 32.0661C306.733 28.7141 299.42 28.2951 297.674 27.4591C295.556 26.4441 293.602 22.3741 290.786 23.2541Z" fill="#F5F3C3"/>
<path d="M58.625 116.144C64.069 121.305 68.157 133.983 61.511 139.599C58.735 141.945 55.826 141.817 52.822 139.972C45.763 135.637 49.436 121.539 36.144 123.768C27.696 125.184 30.686 135.636 26.476 141.328C23.28 145.649 16.722 145.526 15.682 151.262C14.632 157.057 19.533 160.251 20.234 165.371C20.757 169.196 17.417 180.115 22.491 180.888C28.394 181.787 30.788 170.48 34.555 167.722C39.472 164.123 45.194 167.011 49.763 164.554C53.15 162.733 53.29 159.696 55.278 157.042C61.367 148.916 72.426 151.731 70.656 162.919C69.851 168.007 63.196 169.621 62.065 173.274C60.82 177.294 63.331 180.9 61.503 185.135C60.274 187.983 56.696 189.341 56.007 192.663C54.861 198.194 57.244 206.023 54.248 212.461C51.756 217.817 41.698 228.617 38.673 232.242C35.807 235.677 35.345 243.487 30.051 244.341C23.585 245.384 18.843 240.74 13.393 237.955C10.261 236.355 6.10598 235.831 3.45398 233.081C-2.39002 227.022 -1.13102 212.249 9.64198 215.084C16.807 216.969 15.361 235.934 27.834 228.529C33.813 224.98 28.051 210.031 41.531 195.97C44.559 192.811 52.803 185.871 47.284 180.98C40.384 174.864 31.499 190.614 26.043 193.536C19.005 197.306 8.48198 194.595 7.29298 185.968C6.50798 180.273 8.94098 175.843 6.29298 170.404C2.72198 163.069 -1.97902 160.528 0.884978 150.699C2.88498 143.836 10.682 142.645 11.391 136.335C11.779 132.88 10.469 129.519 12.667 126.369C14.229 124.131 17.576 123.347 19.116 121.563C21.76 118.502 20.527 113.758 26.647 112.515C31.436 111.543 34.013 114.527 37.922 115.197C46.234 116.622 50.943 108.856 58.625 116.139V116.144Z" fill="#F5F3C3"/>
<path d="M64.677 193.623C68.645 189.214 73.634 193.786 77.815 191.052C83.445 187.37 80.644 178.405 83.521 172.494C85.58 168.263 91.101 165.735 92.957 161.204C95.887 154.052 92.51 144.365 98.854 138.103C101.106 135.88 109.137 131.82 109.895 129.564C111.833 123.794 102.603 124.587 99.63 123.157C94.455 120.667 92.365 111.752 99.425 110.286C107.272 108.657 110.44 114.498 116.411 115.288C122.274 116.064 127.791 112.421 134.179 112.955C147.192 114.044 145.656 128.943 133.226 126.318C131.491 125.952 129.319 123.691 128.211 126C126.831 128.873 133.399 134.507 133.729 138.25C133.891 140.087 132.592 142.303 132.626 144.617C132.663 147.116 134.054 149.688 133.832 152.236C133.572 155.214 131.381 156.642 131.447 160.601C131.55 166.792 136.186 170.03 135.626 178.325C135.413 181.477 131.827 192.171 136.058 193.336C138.297 193.952 145.234 189.379 147.229 195.749C150.329 205.646 137.049 204.026 131.603 205.659C128.131 206.7 124.357 209.848 120.965 210.428C115.046 211.44 109.403 209.856 110.866 202.718C112.283 195.803 120.174 199.767 122.27 196.351C124.129 193.32 123.338 182.257 120.827 179.5C117.675 176.039 113.248 179.65 109.988 179.12C106.431 178.541 104.354 173.617 99.764 174.48C96.913 175.016 97.405 180.751 96.362 182.933C95.13 185.511 87.728 188.6 90.507 191.991C93.102 195.159 99.706 188.276 104.512 192.814C106.804 194.978 106.761 200.607 103.783 202.158C100.68 203.774 98.596 201.667 95.751 202.428C94.141 202.858 91.556 205.608 89.615 206.369C83.156 208.902 81.635 204.298 77.177 204.103C75.05 204.01 72.641 205.585 70.639 205.8C63.661 206.548 60.242 198.553 64.68 193.622L64.677 193.623ZM120.757 131.958C120.462 131.702 118.799 131.852 118.26 132.024C115.497 132.905 115.164 141.746 113.796 144.725C111.303 150.151 103.39 155 104.156 161.795C104.644 166.122 109.625 163.397 112.767 163.881C114.83 164.199 119.122 167.907 120.509 165.025C122.41 161.075 117.436 155.788 117.306 151.664C117.191 148.01 122.737 133.679 120.756 131.958H120.757Z" fill="#F5F3C3"/>
<path d="M82.861 90.8069C85.504 93.2729 84.773 98.9329 81.431 100.544C77.942 102.226 72.374 101.653 68.338 102.864C62.349 104.661 58.4579 109.724 51.1839 107.317C45.4739 105.427 46.707 96.7589 52.644 95.4919C54.704 95.0519 57.7549 95.8139 59.2669 93.8169C61.7389 90.5519 60.6309 76.9099 56.3969 75.5049C52.8339 74.3229 50.188 76.6729 47.32 76.3189C43.622 75.8619 38.175 67.6919 35.073 73.2369C34.048 75.0689 34.453 77.7319 33.462 79.9109C32.003 83.1199 26.511 84.4929 27.281 88.5399C27.97 92.1599 35.14 88.3059 37.692 88.3599C42.874 88.4699 45.685 96.106 40.916 99.174C37.718 101.231 35.993 98.9689 33.069 99.6049C29.998 100.273 28.077 104.163 23.443 104.273C19.363 104.37 17.153 101.539 14.493 101.275C11.955 101.024 8.87895 103.305 5.72695 103.015C-1.64705 102.336 -1.94205 90.2089 5.08595 88.8789C9.12395 88.1149 11.472 90.838 15.401 87.924C20.544 84.111 17.877 75.7689 20.249 70.2829C22.4 65.3079 28.056 63.5899 29.961 58.6759C32.239 52.7989 30.7889 44.8139 33.3839 39.0219C35.7909 33.6499 45.9199 29.6599 46.7519 26.9139C48.6089 20.7889 40.147 21.9009 36.959 20.3629C31.1129 17.5429 29.384 8.24795 37.736 7.27095C44.781 6.44695 47.939 11.9649 53.686 12.5469C59.952 13.1819 65.278 9.44795 72.009 10.2489C82.862 11.5389 83.284 24.0829 72.668 23.8329C70.301 23.7769 64.758 20.1679 64.678 24.0649C64.624 26.7009 70.267 31.2919 70.621 35.3199C70.842 37.8259 69.594 39.6969 69.614 41.7249C69.634 43.8479 70.939 46.3639 70.842 48.7129C70.694 52.3049 68.051 54.2979 68.164 57.8019C68.271 61.1109 71.131 64.9139 72.058 68.1619C73.859 74.4749 71.609 78.4499 71.196 84.4179C70.359 96.5339 77.84 86.1229 82.86 90.8079L82.861 90.8069ZM54.971 29.1919C53.071 29.8119 52.28 38.8199 51.125 41.3359C48.974 46.0219 39.462 54.0079 41.054 59.4359C42.146 63.1599 47.162 60.6339 50.096 61.0839C52.767 61.4939 59.31 66.9949 58.006 59.1219C56.761 51.6059 53.126 52.3359 55.464 42.1139C56.027 39.6549 61.617 27.0239 54.971 29.1919Z" fill="#F5F3C3"/>
<path d="M204.261 59.4809C201.866 57.0859 197.601 57.4159 196.044 60.6269C193.876 65.0979 196.217 70.5149 195.524 75.4859C195.122 78.3719 188.943 88.5099 193.617 89.9079C197.438 91.0499 201.246 87.1479 204.795 91.7759C207.008 94.6619 206.471 97.9729 204.194 100.694C199.466 106.343 187.644 102.214 181.097 103.091C175.674 103.818 166.216 110.728 162.122 103.584C158.829 97.8379 165.466 91.5749 171.119 90.7739C176.179 90.0569 182.009 92.8019 181.29 85.0759C180.96 81.5289 178.301 77.1199 178.643 73.4349C179.111 68.4009 184.568 66.1529 184.877 61.8649C185.185 57.6089 181.807 50.5079 181.976 45.4649C182.185 39.2449 189.37 33.8079 188.452 28.8359C187.743 24.9969 181.189 25.9139 178.341 25.2979C168.284 23.1219 171.627 7.83594 184.444 10.9359C187.551 11.6869 190.558 14.2859 193.934 14.1649C199.226 13.9749 204.858 8.53894 211.287 8.36694C217.286 8.20594 223.256 12.2069 228.583 12.3249C234.22 12.4499 242.954 2.99494 248.923 8.72894C254.428 14.0169 245.752 21.4379 244.933 25.3969C244.279 28.5569 245.492 32.1999 244.249 35.3609C242.484 39.8489 235.453 40.7879 232.666 36.7709C229.2 31.7749 233.887 27.8679 231.151 24.0819C227.443 18.9499 220.606 25.1799 215.351 25.3359C211.426 25.4529 204.002 21.1839 201.231 24.3939C198.957 27.0299 202.043 32.1329 201.468 35.8709C200.924 39.4029 194.669 44.2889 198.499 47.7809C200.764 49.8459 205.88 50.0979 208.623 48.9199C212.883 47.0899 218.507 34.5799 224.056 41.8099C229.368 48.7319 220.152 55.8799 218.967 61.6039C217.861 66.9479 220.74 74.0159 215.229 77.3939C209.3 81.0279 202.827 77.0929 203.31 70.2819C203.557 66.7869 208.101 63.3179 204.263 59.4799L204.261 59.4809Z" fill="#F5F3C3"/>
<path d="M115.137 89.2979C116.965 91.1239 121.34 89.2059 123.535 89.4489C128.44 89.9909 130.039 96.0309 127.449 99.7879C122.746 106.611 111.079 102.286 104.088 103.105C100.541 103.521 97.463 105.526 94.268 106.319C80.377 109.763 81.278 92.6789 93.492 90.7639C99.612 89.8039 104.72 93.2049 103.66 83.8809C102.907 77.2529 98.871 75.3399 103.591 68.3059C104.403 67.0949 105.784 66.1399 106.349 65.1419C109.53 59.5249 102.076 48.5869 105.995 39.9469C107.5 36.6289 113.498 31.2679 110.513 27.3639C109.03 25.4239 103.505 25.8659 101.197 25.4209C90.913 23.4369 94.23 7.68189 107.313 11.0459C110.056 11.7509 113.588 14.3429 116.414 14.2779C121.576 14.1579 127.212 8.79389 133.095 8.40589C140.742 7.90189 148.095 14.1089 155.137 11.4719C159.905 9.68689 164.311 4.77489 170.369 7.89089C178.503 12.0739 168.174 21.7949 167.317 25.9889C166.455 30.2079 169.045 37.2999 163.048 38.8809C158.454 40.0919 154.671 38.5469 154.123 33.5579C153.745 30.1109 156.017 26.2349 153.557 23.4759C149.988 19.4729 142.34 25.3439 137.837 25.4429C133.431 25.5399 129.004 21.7419 124.858 23.8649C120.464 26.1139 124.407 30.9919 124.273 34.6389C124.116 38.9049 117.155 44.1819 120.959 47.7089C123.353 49.9279 128.083 50.0509 131 48.9149C135.622 47.1139 141.63 34.3529 146.928 41.9169C152.18 49.4149 141.82 56.5249 141.096 63.7169C140.828 66.3759 141.389 69.3679 141.089 71.9899C139.971 81.7439 124.326 81.3879 126.303 69.0669C126.636 66.9929 128.663 65.2199 128.669 63.1189C128.684 58.1909 120.514 55.2749 118.267 61.6439C116.691 66.1109 118.939 70.1899 118.52 74.2919C118.158 77.8359 112.238 86.4029 115.137 89.2989V89.2979Z" fill="#F5F3C3"/>
<path d="M155.369 194.801C161.157 189.03 173.347 198.203 175.614 192.813C177.109 189.258 174.186 183.496 174.885 179.067C175.673 174.074 181.484 168.572 181.883 164.14C182.241 160.171 179.239 155.866 179.523 151.804C179.968 145.433 187.21 141.617 185.864 134.11C185.04 129.518 178.943 129.231 175.333 130.429C167.132 133.15 166.441 146.258 158.294 147.734C150.476 149.151 149.063 142.818 152.094 136.822C153.495 134.052 156.62 131.989 157.569 129.27C158.771 125.828 157.176 118.958 162.114 117.837C167.475 116.619 168.882 120.916 173.271 120.725C176.698 120.576 177.6 117.613 180.404 117.153C184.482 116.483 187.448 118.833 191.013 118.273C193.952 117.811 195.694 114.78 198.04 113.444C205.307 109.305 209.06 116.062 215.16 115.603C220.786 115.18 226.713 104.815 232.575 110.007C237.494 114.363 230.308 122.623 230.038 127.025C229.877 129.654 231.254 132.765 231.031 135.669C230.209 146.366 216.564 147.195 215.654 136.927C215.259 132.466 219.309 127.477 213.881 125.107C210.498 123.63 206.433 124.598 203.39 126.469C193.442 132.585 200.67 151.193 196.617 160.525C195.198 163.792 191.796 166.602 191.018 170.315C190.165 174.382 191.976 178.313 191.311 182.441C190.986 184.463 188.931 187.04 188.524 189.119C186.715 198.345 195.39 193.035 200.561 193.381C208.744 193.929 208.964 203.5 202.335 207.036C196.984 209.89 193.459 205.529 188.747 205.862C185.258 206.109 182.374 209.79 179.181 210.015C174.789 210.324 173.09 206.78 169.628 206.455C164.814 206.003 161.271 209.855 156.064 205.836C152.579 203.145 152.293 197.872 155.372 194.802L155.369 194.801Z" fill="#F5F3C3"/>
</g>
<defs>
<clipPath id="clip0_146_231">
<rect width="332.673" height="256.296" fill="white"/>
</clipPath>
</defs>
</svg>
