<svg width="21" height="21" viewBox="0 0 21 21" fill="none" xmlns="http://www.w3.org/2000/svg">
<path d="M11.1773 19.5117L13.4001 13.4001L19.5117 11.1773C19.7278 11.0987 19.9144 10.9555 20.0463 10.7672C20.1783 10.5788 20.249 10.3544 20.249 10.1245C20.249 9.89456 20.1783 9.67019 20.0463 9.48184C19.9144 9.2935 19.7278 9.1503 19.5117 9.07169L13.4001 6.84888L11.1773 0.737316C11.0987 0.521229 10.9555 0.334564 10.7672 0.202659C10.5788 0.0707545 10.3544 0 10.1245 0C9.89456 0 9.67019 0.0707545 9.48184 0.202659C9.2935 0.334564 9.1503 0.521229 9.07169 0.737316L6.84888 6.84888L0.737314 9.07169C0.521227 9.1503 0.334562 9.2935 0.202658 9.48184C0.0707531 9.67019 0 9.89456 0 10.1245C0 10.3544 0.0707531 10.5788 0.202658 10.7672C0.334562 10.9555 0.521227 11.0987 0.737314 11.1773L6.84888 13.4001L9.07169 19.5117C9.1503 19.7278 9.2935 19.9144 9.48184 20.0463C9.67019 20.1783 9.89456 20.249 10.1245 20.249C10.3544 20.249 10.5788 20.1783 10.7672 20.0463C10.9555 19.9144 11.0987 19.7278 11.1773 19.5117ZM9.77107 19.2558L7.48919 12.9745C7.47046 12.9231 7.4407 12.8764 7.40199 12.8376C7.36328 12.7989 7.31657 12.7692 7.26513 12.7504L0.983877 10.4686C0.913931 10.4409 0.853914 10.3929 0.811621 10.3307C0.769327 10.2685 0.746714 10.195 0.746714 10.1198C0.746714 10.0446 0.769327 9.97113 0.811621 9.90894C0.853914 9.84675 0.913931 9.79871 0.983877 9.77107L7.26513 7.48919C7.31657 7.47046 7.36328 7.4407 7.40199 7.40199C7.4407 7.36328 7.47046 7.31657 7.48919 7.26513L9.77575 0.993254C9.8034 0.923308 9.85144 0.863291 9.91363 0.820998C9.97582 0.778704 10.0493 0.756089 10.1245 0.756089C10.1997 0.756089 10.2732 0.778704 10.3354 0.820998C10.3976 0.863291 10.4456 0.923308 10.4733 0.993254L12.7551 7.26982C12.7739 7.32125 12.8036 7.36797 12.8423 7.40668C12.881 7.44538 12.9278 7.47515 12.9792 7.49388L19.2558 9.77575C19.3257 9.8034 19.3857 9.85144 19.428 9.91363C19.4703 9.97582 19.4929 10.0493 19.4929 10.1245C19.4929 10.1997 19.4703 10.2732 19.428 10.3354C19.3857 10.3976 19.3257 10.4456 19.2558 10.4733L12.9792 12.7551C12.9278 12.7739 12.881 12.8036 12.8423 12.8423C12.8036 12.881 12.7739 12.9278 12.7551 12.9792L10.4733 19.2604C10.4456 19.3304 10.3976 19.3904 10.3354 19.4327C10.2732 19.475 10.1997 19.4976 10.1245 19.4976C10.0493 19.4976 9.97582 19.475 9.91363 19.4327C9.85144 19.3904 9.8034 19.3304 9.77575 19.2604L9.77107 19.2558Z" fill="#5C1116"/>
<path d="M9.77107 19.2558L7.48919 12.9745C7.47046 12.9231 7.4407 12.8764 7.40199 12.8376C7.36328 12.7989 7.31657 12.7692 7.26513 12.7504L0.983877 10.4686C0.913931 10.4409 0.853914 10.3929 0.811621 10.3307C0.769327 10.2685 0.746714 10.195 0.746714 10.1198C0.746714 10.0446 0.769327 9.97113 0.811621 9.90894C0.853914 9.84675 0.913931 9.79871 0.983877 9.77107L7.26513 7.48919C7.31657 7.47046 7.36328 7.4407 7.40199 7.40199C7.4407 7.36328 7.47046 7.31657 7.48919 7.26513L9.77575 0.993254C9.8034 0.923308 9.85144 0.863291 9.91363 0.820998C9.97582 0.778704 10.0493 0.756089 10.1245 0.756089C10.1997 0.756089 10.2732 0.778704 10.3354 0.820998C10.3976 0.863291 10.4456 0.923308 10.4733 0.993254L12.7551 7.26982C12.7739 7.32125 12.8036 7.36797 12.8423 7.40668C12.881 7.44538 12.9278 7.47515 12.9792 7.49388L19.2558 9.77575C19.3257 9.8034 19.3857 9.85144 19.428 9.91363C19.4703 9.97582 19.4929 10.0493 19.4929 10.1245C19.4929 10.1997 19.4703 10.2732 19.428 10.3354C19.3857 10.3976 19.3257 10.4456 19.2558 10.4733L12.9792 12.7551C12.9278 12.7739 12.881 12.8036 12.8423 12.8423C12.8036 12.881 12.7739 12.9278 12.7551 12.9792L10.4733 19.2604C10.4456 19.3304 10.3976 19.3904 10.3354 19.4327C10.2732 19.475 10.1997 19.4976 10.1245 19.4976C10.0493 19.4976 9.97582 19.475 9.91363 19.4327C9.85144 19.3904 9.8034 19.3304 9.77575 19.2604L9.77107 19.2558Z" fill="#5C1116"/>
</svg>
